<svg width="16" height="16" viewBox="0 0 16 16" fill="none" xmlns="http://www.w3.org/2000/svg">
<path d="M15.8983 7.68881C15.7553 7.49328 12.3496 2.90112 7.9999 2.90112C3.65018 2.90112 0.244309 7.49328 0.101528 7.68862C0.0355528 7.77901 0 7.88802 0 7.99992C0 8.11182 0.0355528 8.22083 0.101528 8.31122C0.244309 8.50675 3.65018 13.0989 7.9999 13.0989C12.3496 13.0989 15.7553 8.50672 15.8983 8.31137C15.9643 8.22103 16 8.11201 16 8.00009C16 7.88817 15.9643 7.77915 15.8983 7.68881ZM7.9999 12.044C4.79587 12.044 2.02084 8.99606 1.19937 7.99965C2.01978 7.00237 4.789 3.95606 7.9999 3.95606C11.2038 3.95606 13.9786 7.00344 14.8004 8.00037C13.98 8.99762 11.2108 12.044 7.9999 12.044Z" fill="black"/>
<path d="M7.99991 4.83521C6.25485 4.83521 4.83507 6.25499 4.83507 8.00005C4.83507 9.74511 6.25485 11.1649 7.99991 11.1649C9.74497 11.1649 11.1648 9.74511 11.1648 8.00005C11.1648 6.25499 9.74497 4.83521 7.99991 4.83521ZM7.99991 10.1099C6.83647 10.1099 5.89004 9.16346 5.89004 8.00005C5.89004 6.83664 6.8365 5.89017 7.99991 5.89017C9.16332 5.89017 10.1098 6.83664 10.1098 8.00005C10.1098 9.16346 9.16335 10.1099 7.99991 10.1099Z" fill="black"/>
</svg>
