<svg width="24" height="24" viewBox="0 0 24 24" fill="none" xmlns="http://www.w3.org/2000/svg">
<g clip-path="url(#clip0_725_520)">
<path d="M8.28243 7.21764C8.23221 7.23307 8.18552 7.25825 8.14503 7.29173C8.10454 7.32522 8.07104 7.36635 8.04645 7.41278C8.02186 7.45921 8.00666 7.51003 8.00171 7.56234C7.99677 7.61465 8.00218 7.66742 8.01763 7.71764L9.61763 12.9176C9.63307 12.9679 9.65826 13.0145 9.69174 13.055C9.72523 13.0955 9.76636 13.129 9.81279 13.1536C9.85922 13.1782 9.91003 13.1934 9.96234 13.1983C10.0146 13.2033 10.0674 13.1979 10.1176 13.1824C10.1678 13.167 10.2145 13.1418 10.255 13.1083C10.2955 13.0748 10.329 13.0337 10.3536 12.9873C10.3782 12.9409 10.3934 12.89 10.3983 12.8377C10.4033 12.7854 10.3979 12.7327 10.3824 12.6824L8.78243 7.48244C8.76699 7.43221 8.74182 7.38552 8.70833 7.34503C8.67485 7.30454 8.63372 7.27105 8.58729 7.24646C8.54085 7.22187 8.49003 7.20667 8.43772 7.20172C8.38542 7.19677 8.33265 7.20218 8.28243 7.21764ZM4.11723 9.31724C4.04224 9.39225 4.00011 9.49397 4.00011 9.60004C4.00011 9.7061 4.04224 9.80783 4.11723 9.88284L7.71723 13.4828C7.79267 13.5557 7.89371 13.596 7.99859 13.5951C8.10347 13.5942 8.20379 13.5521 8.27796 13.478C8.35212 13.4038 8.39419 13.3035 8.3951 13.1986C8.39601 13.0937 8.35569 12.9927 8.28283 12.9172L4.68283 9.31724C4.60782 9.24225 4.50609 9.20012 4.40003 9.20012C4.29396 9.20012 4.19224 9.24225 4.11723 9.31724ZM15.7176 7.21764C15.6674 7.20218 15.6146 7.19677 15.5623 7.20172C15.51 7.20667 15.4592 7.22187 15.4128 7.24646C15.3663 7.27105 15.3252 7.30454 15.2917 7.34503C15.2582 7.38552 15.2331 7.43221 15.2176 7.48244L13.6176 12.6824C13.5864 12.7839 13.5968 12.8935 13.6465 12.9873C13.6961 13.081 13.781 13.1512 13.8824 13.1824C13.9838 13.2136 14.0935 13.2033 14.1873 13.1536C14.281 13.1039 14.3512 13.0191 14.3824 12.9176L15.9824 7.71764C15.9979 7.66742 16.0033 7.61465 15.9983 7.56234C15.9934 7.51003 15.9782 7.45921 15.9536 7.41278C15.929 7.36635 15.8955 7.32522 15.855 7.29173C15.8145 7.25825 15.7679 7.23307 15.7176 7.21764ZM15.7172 13.4828C15.7922 13.5578 15.894 13.6 16 13.6C16.1061 13.6 16.2078 13.5578 16.2828 13.4828L19.8828 9.88284C19.9557 9.8074 19.996 9.70636 19.9951 9.60148C19.9942 9.4966 19.9521 9.39627 19.878 9.32211C19.8038 9.24795 19.7035 9.20588 19.5986 9.20497C19.4937 9.20406 19.3927 9.24437 19.3172 9.31724L15.7172 12.9172C15.6422 12.9922 15.6001 13.094 15.6001 13.2C15.6001 13.3061 15.6422 13.4078 15.7172 13.4828ZM2.98123 17.0332C2.72546 17.2906 2.54451 17.6127 2.45777 17.965C2.37103 18.3173 2.38177 18.6866 2.48883 19.0332L3.73163 23.1848C3.79731 23.3959 3.91998 23.5846 4.08613 23.7304C4.25228 23.8761 4.45544 23.9731 4.67321 24.0107C4.89099 24.0483 5.11492 24.025 5.32031 23.9435C5.52571 23.8619 5.70459 23.7252 5.83723 23.5484L6.81843 22.24C6.92482 22.0722 7.06523 21.9285 7.23058 21.8183C7.39594 21.708 7.58257 21.6337 7.77843 21.6H14.9904C15.495 21.5857 15.9743 21.3765 16.328 21.0164L21.32 15.9344C21.6113 15.6403 21.7778 15.2452 21.7851 14.8314C21.7923 14.4176 21.6397 14.0169 21.3589 13.7128C21.0781 13.4087 20.6909 13.2246 20.2778 13.1988C19.8647 13.173 19.4576 13.3076 19.1412 13.5744L15.8896 16.2968C15.7322 16.0794 15.5252 15.9028 15.2857 15.7816C15.0462 15.6603 14.7812 15.5981 14.5128 15.6H10.4376C10.3548 15.6032 10.2734 15.5776 10.2072 15.5276C9.63579 15.0572 8.91861 14.8 8.17843 14.8C7.22939 14.7733 6.28549 14.9484 5.40924 15.3139C4.53299 15.6794 3.74438 16.2269 3.09563 16.92L2.98123 17.0332ZM3.54963 17.5964L3.66123 17.484C4.23792 16.8682 4.9388 16.3817 5.71752 16.057C6.49623 15.7322 7.33503 15.5764 8.17843 15.6C8.73338 15.597 9.27163 15.7897 9.69843 16.1444C9.90802 16.3128 10.1696 16.4032 10.4384 16.4H14.5128C14.6987 16.3968 14.8806 16.4534 15.0318 16.5614C15.1831 16.6695 15.2956 16.8232 15.3528 17C15.356 17.0213 15.361 17.0424 15.3676 17.0628C15.3736 17.0948 15.3773 17.1272 15.3788 17.1596C15.3843 17.268 15.3676 17.3764 15.3298 17.4781C15.292 17.5798 15.234 17.6728 15.1591 17.7514C15.0843 17.8299 14.9943 17.8925 14.8945 17.9352C14.7947 17.9778 14.6873 17.9998 14.5788 17.9996H10.1788C10.0727 17.9996 9.971 18.0418 9.89599 18.1168C9.82097 18.1918 9.77883 18.2936 9.77883 18.3996C9.77883 18.5057 9.82097 18.6075 9.89599 18.6825C9.971 18.7575 10.0727 18.7996 10.1788 18.7996H14.5788C14.7958 18.7999 15.0107 18.756 15.2102 18.6707C15.4097 18.5853 15.5898 18.4602 15.7395 18.3031C15.8891 18.1459 16.0053 17.96 16.0808 17.7565C16.1563 17.5531 16.1897 17.3364 16.1788 17.1196V17.1016L19.6588 14.1888C19.74 14.1207 19.8338 14.0693 19.9349 14.0375C20.0359 14.0058 20.1423 13.9942 20.2478 14.0036C20.3534 14.013 20.456 14.0432 20.5499 14.0923C20.6437 14.1415 20.727 14.2087 20.7948 14.29C20.9219 14.4445 20.9878 14.6403 20.9801 14.8402C20.9723 15.0401 20.8915 15.2302 20.7528 15.3744L15.76 20.4556C15.5533 20.6665 15.2735 20.7898 14.9784 20.8H7.77843C6.98363 20.8 6.39483 21.4704 6.17843 21.76L5.19723 23.0684C5.15322 23.127 5.09396 23.1724 5.02592 23.1996C4.95788 23.2268 4.88368 23.2348 4.81141 23.2227C4.73914 23.2106 4.67158 23.1789 4.61611 23.131C4.56063 23.0831 4.51937 23.021 4.49683 22.9512L3.25403 18.8C3.18911 18.5915 3.18233 18.3692 3.23442 18.1571C3.28651 17.945 3.39549 17.7512 3.54963 17.5964ZM12.5116 0.184837C12.3661 0.0689539 12.1855 0.00585937 11.9994 0.00585938C11.8134 0.00585938 11.6328 0.0689539 11.4872 0.184837L9.34363 1.97364C9.28904 2.0193 9.24761 2.0787 9.22364 2.14571C9.19966 2.21271 9.194 2.28491 9.20723 2.35484L10.1724 7.47484C10.1852 7.54376 10.216 7.60807 10.2616 7.66124L11.6976 9.33404C11.7352 9.37781 11.7818 9.41295 11.8342 9.43704C11.8866 9.46113 11.9436 9.4736 12.0012 9.4736C12.0589 9.4736 12.1159 9.46113 12.1683 9.43704C12.2207 9.41295 12.2673 9.37781 12.3048 9.33404L13.7408 7.66044C13.7864 7.60719 13.8171 7.54291 13.83 7.47404L14.7928 2.35404C14.8061 2.28411 14.8004 2.21191 14.7764 2.14491C14.7524 2.0779 14.711 2.0185 14.6564 1.97284L12.5116 0.184837ZM13.7116 2.22484L12.4 3.00724V1.13364L13.7116 2.22484ZM11.6 1.13204V3.00844L10.29 2.22604L11.6 1.13204ZM10.1576 3.08004L11.6 3.94004V7.99284L10.9372 7.22124L10.1576 3.08004ZM13.0636 7.22204L12.4 7.99284V3.93924L13.8424 3.07724L13.0636 7.22204Z" fill="black"/>
</g>
<defs>
<clipPath id="clip0_725_520">
<rect width="24" height="24" fill="white"/>
</clipPath>
</defs>
</svg>
