<svg width="186" height="180" viewBox="0 0 186 180" fill="none" xmlns="http://www.w3.org/2000/svg">
<circle cx="95.5334" cy="90.5" r="70.5" fill="#A9B0F5"/>
<circle cx="178.467" cy="27.5" r="7.5" fill="#A9B0F5"/>
<circle cx="20.0334" cy="10" r="10" fill="#A9B0F5"/>
<circle cx="10.0334" cy="133" r="5" fill="#A9B0F5"/>
<circle cx="165.533" cy="160.5" r="2.5" fill="#A9B0F5"/>
<path d="M64.6023 81.7648C66.2467 82.8564 68.3084 83.4326 69.8381 84.6855C71.3362 87.0674 73.1151 89.2607 75.1365 91.2183C71.6264 91.031 69.3926 88.3115 65.7708 89.2012C65.35 89.2969 65.2972 89.8003 65.5366 90.0878C68.4741 93.4326 73.3954 91.2342 77.0612 92.9075C78.4946 94.059 80.036 95.0831 81.7363 95.8045C80.4501 95.8009 77.7731 95.7769 76.3183 95.7633C76.0377 95.7607 75.766 95.8617 75.5552 96.047C75.3445 96.2323 75.2095 96.4889 75.1762 96.7675C74.4008 105.461 76.3433 116.026 85.4326 119.467C88.3171 120.582 90.8938 121.695 92.2998 124.66C92.9283 126.099 92.8052 127.393 94.8251 127.265C96.75 127.262 107.981 127.375 108.571 127.166C109.134 126.967 109.348 126.499 109.519 125.973C109.85 124.871 110.4 123.847 111.135 122.962C111.87 122.077 112.776 121.348 113.798 120.82C115.276 120.045 116.885 119.556 118.364 118.781C126.536 114.767 127.163 105.452 127.46 97.5516C127.469 97.3408 127.437 97.1302 127.364 96.9322C127.291 96.7341 127.18 96.5525 127.036 96.3981C126.892 96.2436 126.719 96.1194 126.527 96.0327C126.334 95.9459 126.127 95.8984 125.916 95.893C124.434 95.8539 122.321 95.8028 121.359 95.8018C123.52 88.5332 126.791 81.6577 129.168 74.458C129.87 72.3755 130.621 70.1093 130.392 67.9402C130.189 66.026 128.919 64.0315 126.881 63.7511C122.622 63.3219 119.168 69.9967 116.948 72.9799C113.373 77.9913 110.518 83.4395 107.96 89.0255C107.566 88.3624 106.987 87.8282 106.294 87.4879C106.561 87.4008 106.812 87.2688 107.034 87.0976C107.336 86.8589 107.182 86.2429 106.795 86.1897C106.362 86.1114 105.922 86.0884 105.484 86.1213C105.708 85.1838 106.732 82.5249 105.436 82.0793C104.051 81.6453 103.51 85.0375 103.433 85.9677C102.766 85.6051 101.982 85.3694 101.562 85.8916C101.137 86.4204 101.628 86.9041 102.231 87.2521C101.647 87.4343 101.133 87.7891 100.756 88.2696C100.485 88.6368 100.989 88.957 101.307 88.8214C102.127 88.4553 103.003 88.231 103.897 88.1579C105.128 88.4711 105.806 89.155 105.613 90.4706C105.444 91.4252 104.98 92.7896 103.826 92.7179C103.093 92.5036 102.285 92.4604 101.636 92.7538C101.607 90.3017 100.16 88.7874 97.6596 88.9919C97.682 88.9228 97.692 88.8502 97.6892 88.7776C97.8088 88.6726 97.9198 88.5583 98.0211 88.4356C98.3999 87.9698 98.2353 87.1932 97.5404 87.1934C96.9943 87.2075 96.5286 87.6945 96.1855 88.0756C95.8981 87.0476 96.1158 81.397 94.2294 82.2533C92.766 83.2505 93.762 86.5617 94.408 87.9079C93.7106 87.66 92.9132 87.6214 92.3804 87.8339C91.7653 88.0787 91.5247 88.8656 92.1623 89.259C92.6211 89.518 93.2174 89.5402 93.7029 89.751C91.139 90.8219 90.6343 93.6364 92.299 95.7849C89.8091 95.5597 87.6779 93.3774 87.2487 90.9822C86.9753 89.2013 87.3838 88.3209 88.2107 86.7997C88.7011 85.7508 88.9532 84.6312 88.4396 83.5452C88.2967 83.2431 87.7963 83.2507 87.6512 83.5452C86.7566 85.2826 86.2705 87.3834 86.1444 89.3961C85.3834 87.1822 84.9264 84.8752 84.7861 82.5383C84.8218 81.1491 85.2073 79.8085 85.7209 78.5262C86.4034 76.7705 87.0537 75.0038 86.699 73.0962C86.6828 73.0102 86.6425 72.9304 86.583 72.8661C86.5234 72.8019 86.447 72.7557 86.3623 72.733C86.2777 72.7103 86.1884 72.7119 86.1047 72.7377C86.0209 72.7634 85.9462 72.8123 85.889 72.8787C83.0551 76.2039 83.3607 80.7558 83.9147 84.8378C83.1895 83.9988 82.3299 83.2579 81.7586 82.2955C80.9767 80.9783 80.6871 79.5516 79.328 78.652C79.2546 78.6025 79.1689 78.5743 79.0804 78.5708C78.9919 78.5672 78.9042 78.5883 78.8271 78.6318C78.75 78.6752 78.6864 78.7393 78.6437 78.8168C78.6009 78.8944 78.5805 78.9823 78.5849 79.0707C78.5849 84.3083 82.386 83.6784 84.4078 87.3757C85.2218 90.5656 86.4376 93.9268 89.298 95.8441C85.4117 95.951 81.9406 95.4688 79.4076 92.1906C78.8452 91.0343 78.9308 89.7732 79.0057 88.5278C79.1073 86.6744 78.5432 84.959 77.1261 83.7117C76.8934 83.507 76.4355 83.6267 76.4612 83.9871C76.657 86.7438 76.8565 89.6759 78.362 92.0752C78.4293 92.2801 78.5068 92.4815 78.5942 92.6787L78.5883 92.6836C76.657 91.2862 74.9382 89.5498 73.4259 87.7256C72.4935 86.3492 72.0605 85.1636 72.1494 83.486C72.3078 80.8195 74.6127 78.1802 72.3649 75.738C72.3142 75.6888 72.2516 75.6534 72.1831 75.6355C72.1147 75.6176 72.0428 75.6177 71.9745 75.6357C71.9061 75.6538 71.8436 75.6892 71.7929 75.7386C71.7423 75.788 71.7053 75.8497 71.6856 75.9176C70.9012 78.774 70.3471 81.7932 71.1728 84.7067C69.7168 82.516 68.488 80.1825 67.5055 77.7424C66.4146 73.3111 67.0911 68.1908 64.2181 64.3503C63.9197 63.9641 63.377 64.0987 63.3208 64.5933C62.6684 69.6428 64.0439 72.9505 66.2142 77.3657C66.8542 79.1093 67.6223 80.8031 68.5122 82.4333C67.0249 81.5684 65.7401 80.3949 64.7444 78.9918C63.6507 77.4905 62.176 75.7435 60.1143 76.0866C60.0333 76.079 59.9519 76.097 59.8815 76.1379C59.8225 76.1668 59.7706 76.2083 59.7296 76.2596C59.6885 76.3109 59.6593 76.3706 59.644 76.4345C59.6288 76.4983 59.6278 76.5648 59.6413 76.6291C59.6547 76.6934 59.6822 76.7539 59.7218 76.8063C60.8455 78.8196 62.7009 80.5028 64.6023 81.7648ZM110.617 86.631C110.671 86.2146 110.78 85.8072 110.941 85.4193C113.413 80.188 116.441 75.2378 119.972 70.6539C124.329 65.008 128.049 63.7323 126.866 70.5437C125.725 75.7632 120.516 91.2141 113.203 90.2264C112.797 90.1602 112.408 90.0147 112.058 89.7982C111.708 89.5817 111.405 89.2984 111.165 88.9645C110.925 88.6306 110.753 88.2527 110.659 87.8523C110.565 87.4519 110.55 87.0369 110.617 86.631ZM96.0684 90.1593C97.4429 90.4768 98.3049 91.2894 98.3685 92.7641C98.437 93.7684 98.1625 94.8394 97.4399 95.5487C97.2327 95.6492 97.0122 95.7317 96.7818 95.8407L94.7098 95.8418C93.157 95.6429 92.4059 94.495 92.3831 92.9922C92.3399 91.0472 94.3336 90.2789 96.068 90.1593H96.0684ZM114.857 97.0455C115.186 97.0425 115.512 97.106 115.816 97.2321C116.12 97.3582 116.395 97.5444 116.625 97.7796C116.856 98.0147 117.036 98.2938 117.156 98.6003C117.276 98.9068 117.332 99.2343 117.322 99.5632C117.265 101.059 116.505 102.65 114.871 102.647C106.124 102.686 91.1021 102.687 83.915 102.752C83.7778 102.755 83.6473 102.812 83.5514 102.91C83.4556 103.009 83.4019 103.14 83.4019 103.278C83.4019 103.415 83.4556 103.547 83.5514 103.645C83.6473 103.743 83.7778 103.8 83.915 103.803C87.1562 104.203 95.7698 104.541 99.9963 104.411C102.647 104.406 110.465 104.554 111.706 104.695C115.349 105.109 114.548 108.59 113.969 109.801C110.378 114.783 103.427 116.072 102.918 123.165C102.822 124.001 102.993 125.555 102.116 126.038C98.3851 126.031 94.2332 125.936 94.0821 125.625C91.9607 118.648 84.7854 119.463 80.5567 114.695C76.4149 109.895 75.9964 103.007 76.5876 96.9627C79.4195 97.0589 101.149 97.0866 114.856 97.0455H114.857Z" fill="black"/>
<path d="M93.0072 61.0115C92.2502 59.1237 90.7298 58.2039 89.503 57.7576C89.3766 57.711 89.2386 57.7058 89.1089 57.7427C88.9793 57.7796 88.8648 57.8567 88.7818 57.9629C88.6988 58.0691 88.6516 58.1989 88.6472 58.3336C88.6427 58.4683 88.6811 58.601 88.7568 58.7125C89.8702 60.3175 90.9768 62.5448 90.9497 63.9716C90.9107 66.0029 90.0139 67.8907 89.4974 69.8239C88.6677 72.7488 89.1492 75.9411 91.0218 78.401C91.1658 78.6281 91.8126 79.2288 92.191 79.5205C92.6236 79.8537 93.2618 79.2122 92.9495 78.7619C86.9773 71.9764 95.2514 67.596 93.0072 61.0115ZM102.415 63.5928C103.559 62.049 104.222 60.1592 103.748 58.2443C103.387 56.7876 101.779 55.0737 100.158 54.7172C99.8583 54.6512 99.3308 54.8936 99.5071 55.2128C100.613 57.2091 100.875 59.5876 100.165 61.2341C99.468 62.8519 98.1092 64.0665 97.0176 65.4108C94.8864 68.0338 93.3744 71.6046 94.4394 74.9788C94.6218 75.556 95.3702 75.3192 95.3323 74.7326C94.8444 67.172 99.8675 67.0268 102.415 63.5928ZM80.4157 64.0003L83.2441 62.7755C83.787 62.5491 83.6021 61.701 83.0093 61.729L80.1388 61.8231C79.6151 61.8401 79.0992 61.6936 78.6626 61.4039C78.226 61.1141 77.8905 60.6956 77.7027 60.2065L76.4585 56.96C76.2597 56.4182 75.4225 56.5475 75.4034 57.1305L75.2472 60.5503C75.224 61.0229 75.0689 61.4796 74.7995 61.8686C74.5301 62.2576 74.1571 62.5634 73.7228 62.7514L71.0255 63.9074C70.4871 64.1284 70.6579 64.9646 71.2413 64.9549L74.1421 64.9512C74.6626 64.9513 75.1703 65.1123 75.5957 65.412C76.0212 65.7118 76.3435 66.1358 76.5187 66.6259L78.0601 70.9546C78.2602 71.5355 79.157 71.3628 79.1195 70.7437L78.9008 66.4406C78.8762 65.9282 79.008 65.4205 79.2785 64.9847C79.5491 64.5489 79.9456 64.2057 80.4157 64.0003ZM77.8401 67.0832C77.2886 65.1037 76.0623 63.8124 73.907 63.8605C75.6935 63.1945 76.4407 61.6195 76.3749 59.7923C76.9247 61.6378 78.15 62.946 80.1764 62.9151C78.4392 63.571 77.5907 65.2844 77.8401 67.0832ZM105.127 77.7392C105.058 78.3498 105.941 78.5797 106.174 78.0047L107.828 74.0262C108.027 73.5531 108.364 73.1515 108.796 72.8746C109.228 72.5976 109.733 72.4584 110.246 72.4754L113.326 72.5866C113.914 72.6162 114.112 71.7708 113.564 71.5409L110.933 70.3908C110.453 70.1808 110.05 69.8265 109.781 69.3772C109.511 68.9278 109.389 68.4057 109.429 67.8834L109.703 64.4168C109.757 63.8423 108.946 63.5988 108.677 64.1167L107.066 67.1369C106.842 67.5537 106.505 67.8993 106.094 68.1346C105.684 68.3698 105.215 68.4854 104.742 68.4682L101.81 68.3515C101.684 68.3465 101.56 68.3851 101.46 68.4606C101.359 68.5362 101.288 68.6442 101.258 68.7663C101.228 68.8884 101.241 69.0171 101.295 69.1308C101.348 69.2444 101.44 69.3359 101.554 69.3899L104.173 70.6344C104.643 70.8584 105.032 71.2222 105.287 71.6758C105.542 72.1295 105.651 72.651 105.598 73.1688L105.127 77.7392ZM104.432 69.548C106.331 69.7152 107.683 68.6156 108.41 66.9376C108.112 68.8401 108.655 70.5488 110.498 71.3924C108.647 71.2378 107.144 72.4193 106.595 74.1499C106.949 72.1255 106.398 70.4321 104.432 69.5483V69.548Z" fill="black"/>
<circle cx="106.533" cy="4.5" r="2.5" fill="#A9B0F5"/>
<circle cx="62.5334" cy="176.5" r="3.5" fill="#A9B0F5"/>
<circle cx="122.033" cy="171" r="1" fill="#A9B0F5"/>
<circle cx="170.533" cy="110.5" r="2.5" fill="#A9B0F5"/>
<circle cx="1.03345" cy="75" r="1" fill="#A9B0F5"/>
</svg>
