<svg width="33" height="36" viewBox="0 0 33 36" fill="none" xmlns="http://www.w3.org/2000/svg">
<path d="M12.6844 14.2482C12.743 14.1295 12.7527 13.9921 12.7113 13.8662C12.67 13.7403 12.581 13.6362 12.4639 13.5768C10.3381 12.5968 3.83408 8.99638 3.27791 10.399C2.2907 11.824 11.4539 16.886 13.2877 18.0916C13.1116 19.3067 13.3483 20.5465 13.9589 21.6072C11.8222 22.5795 10.258 23.1395 9.4671 23.2987C9.80374 22.9597 10.4959 22.3698 11.9104 21.418C12.4444 21.0461 11.9118 20.2295 11.3645 20.584C10.2944 21.368 7.7127 22.9124 8.24999 23.946C8.91636 25.1937 13.0561 23.0327 14.547 22.4355C16.3338 24.6402 19.9534 24.9193 22.0514 22.9749C24.0552 23.9033 32.2639 28.5573 32.9181 27.0192C33.7411 25.8648 28.1281 22.6335 26.3584 21.4275C25.8031 21.0914 25.2911 21.9207 25.8382 22.2783C29.0198 24.278 30.6967 25.5248 31.4715 26.2088C30.1621 25.8056 27.3308 24.6034 22.7623 22.2216C23.3585 21.4557 23.7376 20.5396 23.859 19.5718C23.8672 19.5066 23.8626 19.4404 23.8456 19.377C23.8285 19.3136 23.7993 19.2542 23.7597 19.2022C23.72 19.1503 23.6706 19.1067 23.6143 19.0741C23.558 19.0415 23.496 19.0205 23.4317 19.0122C23.3674 19.0039 23.3021 19.0085 23.2395 19.0258C23.177 19.043 23.1184 19.0727 23.0672 19.1129C23.0159 19.1531 22.973 19.2032 22.9408 19.2602C22.9087 19.3173 22.8879 19.3802 22.8797 19.4454C22.7727 20.2982 22.4204 21.1001 21.8667 21.7512C21.4104 21.5098 20.9389 21.2578 20.4519 20.9953C19.874 20.6959 19.4203 21.5599 19.9879 21.8788C20.3591 22.079 20.7269 22.2758 21.0912 22.4692C19.4624 23.7254 16.8697 23.4896 15.4881 21.9938C17.6656 20.9412 29.0939 15.1583 28.0194 13.3373C27.7392 12.8008 27.0022 12.6891 24.1979 13.7867C24.1369 13.81 24.0812 13.8453 24.0338 13.8906C23.9864 13.9359 23.9483 13.9902 23.9217 14.0505C23.8951 14.1108 23.8805 14.1758 23.8788 14.2418C23.8771 14.3078 23.8883 14.3735 23.9118 14.4351C23.9352 14.4967 23.9705 14.553 24.0155 14.6007C24.0605 14.6484 24.1143 14.6867 24.174 14.7132C24.2336 14.7397 24.2979 14.754 24.363 14.7552C24.4281 14.7565 24.4928 14.7446 24.5534 14.7204C25.7198 14.264 26.4097 14.0719 26.8066 13.9938C26.2772 14.522 25.1036 15.4075 23.3658 16.5151C21.36 12.1988 15.0257 12.6321 13.5359 17.079C8.95203 14.3551 5.915 12.2566 4.72504 11.2124C5.80998 11.5465 8.04564 12.4529 12.0225 14.4705C12.1394 14.5299 12.2747 14.5398 12.3988 14.4982C12.5229 14.4565 12.6256 14.3666 12.6844 14.2482ZM18.5658 14.4744C19.399 14.4714 20.2153 14.7126 20.9165 15.1689C21.6177 15.6252 22.1738 16.2773 22.518 17.0466C21.4381 17.712 20.0253 18.525 18.6258 19.2784C18.4236 19.3873 18.1978 19.4432 17.9688 19.441C17.7399 19.4388 17.5151 19.3786 17.3149 19.2659C16.341 18.7173 15.3717 18.1603 14.4072 17.5949C14.6804 16.6925 15.2317 15.9025 15.9801 15.3409C16.7285 14.7793 17.6347 14.4757 18.5658 14.4744ZM14.224 18.6422C15.1144 19.1619 16.0089 19.6745 16.9072 20.1801C16.1848 20.5491 15.5027 20.8853 14.8608 21.1886C14.3974 20.4255 14.1752 19.537 14.224 18.6422ZM2.87748 17.7105C2.75062 18.4203 3.7883 18.6293 3.93873 17.9246C4.06571 17.215 3.02803 17.0058 2.87748 17.7105ZM20.8786 28.5649C20.7516 29.2745 21.7895 29.4836 21.9399 28.7788C22.0669 28.0692 21.0291 27.86 20.8786 28.5649ZM31.1295 9.06228C31.8294 9.1909 32.0357 8.13872 31.3406 7.98634C30.6407 7.8581 30.4344 8.90965 31.1295 9.06228ZM20.4519 35.9891C21.1518 36.1177 21.3582 35.0657 20.6631 34.9132C19.9631 34.7844 19.7563 35.8365 20.4519 35.9891ZM0.0107057 27.2909C-0.116151 28.0005 0.921653 28.2097 1.07196 27.505C1.19894 26.7954 0.161255 26.5862 0.0107057 27.2909ZM20.6631 0.649124C20.7899 -0.0604978 19.7521 -0.269681 19.6018 0.435062C19.4748 1.14481 20.5128 1.35387 20.6631 0.649124Z" fill="black"/>
</svg>
