<svg width="320" height="36" viewBox="0 0 320 36" fill="none" xmlns="http://www.w3.org/2000/svg">
<path d="M159.376 23.3629C159.445 23.4654 159.538 23.5494 159.646 23.6075C159.755 23.6655 159.877 23.6959 160 23.6959C160.123 23.6959 160.245 23.6655 160.354 23.6075C160.462 23.5494 160.555 23.4654 160.624 23.3629L165.933 15.6945C166.014 15.5727 166.057 15.4292 166.057 15.2826C166.057 14.8683 165.721 14.5322 165.306 14.5322C165.183 14.5321 165.062 14.5623 164.954 14.6202C164.845 14.6781 164.753 14.7618 164.685 14.864L160 21.6293L155.315 14.8639C155.247 14.7617 155.155 14.678 155.046 14.6201C154.938 14.5622 154.817 14.532 154.694 14.5321C154.279 14.5321 153.943 14.8683 153.943 15.2825C153.943 15.4352 153.988 15.5769 154.067 15.6944L159.376 23.3629Z" fill="#F78B73"/>
<path d="M177.251 14.5331H168.955C168.832 14.5328 168.71 14.5631 168.602 14.6212C168.493 14.6792 168.4 14.7633 168.332 14.8659L160 26.8982L151.668 14.866C151.6 14.7634 151.507 14.6793 151.398 14.6212C151.29 14.5631 151.168 14.5329 151.045 14.5332H142.749C142.336 14.5331 142 14.8693 142 15.2835C142 15.6976 142.336 16.0327 142.749 16.0327H150.652L159.402 28.6681C159.472 28.7609 159.562 28.8362 159.666 28.8881C159.77 28.94 159.884 28.967 160 28.967C160.116 28.967 160.23 28.94 160.334 28.8881C160.438 28.8362 160.528 28.7609 160.598 28.6681L169.348 16.0328H177.251C177.664 16.0328 178 15.6977 178 15.2835C178 14.8694 177.664 14.5331 177.251 14.5331Z" fill="#F78B73"/>
<line x1="210" y1="14.5" x2="320" y2="14.5" stroke="url(#paint0_linear_626_4874)"/>
<line y1="-0.5" x2="110" y2="-0.5" transform="matrix(-1 0 0 1 110 15)" stroke="url(#paint1_linear_626_4874)"/>
<defs>
<linearGradient id="paint0_linear_626_4874" x1="208.136" y1="15" x2="320" y2="15" gradientUnits="userSpaceOnUse">
<stop stop-color="#F68B73"/>
<stop offset="1" stop-color="#F68B73" stop-opacity="0"/>
</linearGradient>
<linearGradient id="paint1_linear_626_4874" x1="-1.86441" y1="7.17359e-07" x2="110" y2="-3.66783e-05" gradientUnits="userSpaceOnUse">
<stop stop-color="#F68B73"/>
<stop offset="1" stop-color="#F68B73" stop-opacity="0"/>
</linearGradient>
</defs>
</svg>
