<svg width="323" height="270" viewBox="0 0 323 270" fill="none" xmlns="http://www.w3.org/2000/svg">
<path d="M72.7164 201.125C68.4264 193.935 64.1964 186.815 60.0064 179.615L60.3764 179.825C59.2264 179.705 58.0664 179.685 56.9164 179.675C55.7664 179.685 54.6064 179.695 53.4564 179.825L53.7564 179.705C50.6564 182.445 47.6564 185.295 44.6064 188.085C43.0864 189.485 41.5964 190.925 40.0964 192.345C38.6064 193.775 37.1264 195.225 35.6664 196.685L35.5864 195.995C37.1664 197.105 38.8664 198.025 40.5264 199.005L40.4964 198.995C41.6464 199.465 42.7964 199.915 43.9464 200.355L47.4164 201.675C49.7364 202.535 52.0564 203.385 54.4064 204.175L54.2464 204.145C55.0964 204.215 55.9464 204.245 56.8064 204.275C57.6564 204.315 58.5064 204.305 59.3664 204.315C61.0664 204.315 62.7764 204.305 64.4764 204.145L64.3264 204.175C65.7664 203.765 67.1964 203.255 68.6264 202.745C69.3464 202.495 70.0264 202.215 70.7364 201.955C71.4064 201.675 72.0864 201.405 72.7164 201.125ZM73.5364 201.415C72.7264 201.685 71.9664 201.965 71.2064 202.245C70.4664 202.535 69.7064 202.805 68.9864 203.105C67.5264 203.695 66.0764 204.295 64.6264 204.985C64.5764 205.005 64.5264 205.015 64.4764 205.015C62.7764 204.855 61.0664 204.845 59.3664 204.845C58.5164 204.865 57.6664 204.855 56.8064 204.885C55.9564 204.915 55.1064 204.945 54.2464 205.015C54.1964 205.015 54.1464 205.015 54.1064 204.995H54.0964C51.8264 203.995 49.5364 203.065 47.2464 202.145L43.7964 200.795C42.6464 200.345 41.4864 199.905 40.3264 199.475L40.3064 199.465H40.2964C38.5964 198.545 36.9364 197.565 35.1664 196.785C34.9664 196.695 34.8664 196.455 34.9564 196.255C34.9764 196.205 35.0164 196.155 35.0564 196.115L35.0764 196.095C36.6264 194.725 38.1664 193.345 39.6864 191.945C41.1964 190.535 42.7264 189.145 44.2164 187.715C47.1964 184.855 50.2264 182.035 53.1664 179.115L53.1864 179.095C53.2564 179.025 53.3664 178.985 53.4564 179.005C54.6064 179.135 55.7664 179.145 56.9164 179.155C58.0664 179.135 59.2264 179.125 60.3764 179.005C60.5264 178.985 60.6564 179.065 60.7264 179.185L60.7464 179.225C65.0664 186.565 69.3264 194.025 73.5364 201.415Z" fill="white"/>
<path d="M60.6363 179.505C60.3563 180.035 60.1263 180.585 59.9063 181.145C59.6863 181.705 59.4863 182.265 59.3663 182.865C59.3263 183.065 59.1263 183.195 58.9263 183.155C58.8663 183.145 58.8163 183.115 58.7663 183.085L58.7463 183.065C57.9063 182.385 57.0063 181.815 56.0963 181.235C55.1863 180.675 54.2663 180.125 53.3063 179.645L53.7163 179.555C51.4663 182.805 49.2663 186.095 47.0963 189.405C44.9163 192.705 42.7763 196.035 40.7663 199.445L40.8363 199.195C40.8263 202.735 40.8463 206.275 40.8863 209.805L41.0863 220.415C41.2463 227.485 41.4363 234.555 41.7263 241.635L41.2963 241.215C44.3063 241.455 47.3163 241.515 50.3263 241.575L54.8463 241.585C56.3563 241.565 57.8563 241.535 59.3663 241.455C59.4063 241.455 59.4463 241.465 59.4863 241.475C61.5763 242.235 63.6963 242.915 65.8163 243.575C67.9363 244.235 70.0763 244.855 72.2463 245.335C72.4763 245.385 72.6263 245.615 72.5763 245.855C72.5263 246.085 72.2963 246.235 72.0563 246.185C72.0363 246.185 72.0163 246.175 71.9963 246.165C69.9163 245.365 67.7963 244.695 65.6663 244.065C63.5363 243.435 61.3963 242.825 59.2363 242.305L59.3563 242.325C57.8563 242.205 56.3463 242.135 54.8363 242.075L50.3163 241.965C47.3063 241.955 44.2863 241.935 41.2763 242.085C41.0563 242.095 40.8663 241.925 40.8463 241.705V241.685V241.665C40.8363 234.585 40.7363 227.515 40.5963 220.445L40.3563 209.835C40.2463 206.295 40.1263 202.765 39.9663 199.225V199.215C39.9663 199.125 39.9863 199.045 40.0363 198.975C42.3763 195.775 44.5863 192.495 46.7563 189.195C48.9463 185.895 51.0963 182.575 53.1963 179.225L53.2063 179.215C53.2863 179.085 53.4663 179.045 53.5963 179.125L53.6063 179.135C54.4763 179.755 55.3963 180.305 56.3163 180.855C57.2463 181.385 58.1763 181.905 59.1763 182.335L58.5563 182.535C58.9063 182.035 59.1763 181.495 59.4263 180.955C59.6763 180.415 59.9163 179.865 60.1063 179.295C60.1563 179.145 60.3163 179.075 60.4563 179.115C60.6063 179.165 60.6763 179.325 60.6363 179.465C60.6463 179.485 60.6463 179.495 60.6363 179.505Z" fill="white"/>
<path d="M53.8164 204.555L58.5464 182.615C58.5964 182.385 58.8264 182.235 59.0564 182.285C59.2264 182.325 59.3464 182.445 59.3864 182.605L64.8964 204.475V204.485C64.9064 204.535 64.9064 204.595 64.9064 204.635C64.4064 207.735 63.9464 210.845 63.4864 213.945C63.0564 217.055 62.5964 220.165 62.1864 223.275C61.3864 229.505 60.5064 235.725 59.7864 241.965C59.7564 242.205 59.5464 242.375 59.3064 242.345C59.1064 242.325 58.9464 242.165 58.9264 241.965C58.5764 238.835 58.1964 235.715 57.7964 232.595L56.5564 223.245L55.2264 213.905C54.7864 210.795 54.3064 207.675 53.8164 204.555ZM54.6764 204.585C55.0364 207.685 55.4064 210.795 55.8164 213.895L57.0464 223.215L58.3564 232.535C58.8064 235.635 59.2864 238.745 59.7864 241.835H58.9364C59.9164 235.635 60.7464 229.405 61.6564 223.195C62.1064 220.085 62.4964 216.975 62.9164 213.865C63.3164 210.755 63.6964 207.635 64.0564 204.515L64.0664 204.675L58.5564 182.805L59.3964 182.795L54.6764 204.585Z" fill="white"/>
<path d="M35.7963 196.325C36.1563 200.115 36.6363 203.895 37.1363 207.665L38.6463 218.985C39.6463 226.525 40.6563 234.075 41.7163 241.615L41.5663 241.345C44.0063 243.605 46.5163 245.775 49.0363 247.935C51.5663 250.075 54.1063 252.215 56.7463 254.235L56.2563 254.185C57.6063 253.535 58.9363 252.835 60.2563 252.125C61.5763 251.425 62.8763 250.675 64.1863 249.955L68.0663 247.685C69.3463 246.905 70.6263 246.125 71.8663 245.285L71.5863 245.755C71.8863 238.345 72.0863 230.925 72.3263 223.515C72.4563 219.805 72.5563 216.105 72.6263 212.395C72.7163 208.685 72.8063 204.985 72.8363 201.275C72.8363 201.115 72.9663 200.985 73.1263 200.985C73.2863 200.985 73.4163 201.115 73.4163 201.275V201.285C73.2763 204.995 73.2063 208.695 73.1263 212.405C73.0363 216.115 72.9663 219.825 72.9263 223.525C72.8363 230.945 72.7063 238.355 72.6763 245.775V245.805C72.6763 245.995 72.5563 246.165 72.3963 246.235C71.0363 246.865 69.6963 247.545 68.3663 248.235L64.4163 250.365C63.1163 251.105 61.8063 251.825 60.5163 252.595C59.2263 253.355 57.9363 254.125 56.6763 254.935C56.5163 255.035 56.3163 255.005 56.1863 254.885C53.7663 252.605 51.2463 250.445 48.7163 248.295C46.1763 246.165 43.6263 244.035 41.0063 241.995C40.9263 241.925 40.8763 241.835 40.8563 241.735V241.725C39.9463 234.165 38.9763 226.615 38.0063 219.065L36.5563 207.745C36.0663 203.975 35.5663 200.195 34.9363 196.445C34.8963 196.205 35.0563 195.985 35.2863 195.945C35.5163 195.905 35.7463 196.065 35.7863 196.295C35.7863 196.305 35.7863 196.315 35.7963 196.325Z" fill="white"/>
<path d="M56.0464 254.455C56.6664 252.375 57.1564 250.275 57.6564 248.165C58.1164 246.055 58.5864 243.945 58.9464 241.805C58.9864 241.565 59.2064 241.415 59.4464 241.445C59.6864 241.485 59.8364 241.705 59.8064 241.945C59.8064 241.965 59.7964 241.985 59.7964 241.995C59.1864 244.075 58.6864 246.175 58.1864 248.285C57.7164 250.395 57.2464 252.505 56.8964 254.645C56.8564 254.885 56.6364 255.045 56.3964 255.005C56.1564 254.965 55.9964 254.745 56.0364 254.505C56.0364 254.495 56.0364 254.475 56.0464 254.455Z" fill="white"/>
<path d="M11.9064 196.285C12.4364 199.835 13.1764 203.345 13.9364 206.845L16.2164 217.355C17.7164 224.365 19.2464 231.365 20.8364 238.365C20.8864 238.595 20.7464 238.825 20.5064 238.885C20.2764 238.935 20.0465 238.795 19.9865 238.555V238.545C18.6365 231.505 17.2364 224.475 15.7964 217.455L13.5764 206.935C12.8264 203.435 12.0464 199.935 11.0564 196.475C10.9864 196.245 11.1264 196.005 11.3564 195.935C11.5864 195.865 11.8264 196.005 11.8864 196.235C11.9064 196.245 11.9064 196.265 11.9064 196.285Z" fill="white"/>
<path d="M26.1464 212.795C28.6264 217.625 31.1864 222.425 33.7664 227.205C36.3564 231.985 38.9564 236.755 41.6664 241.465L41.6764 241.485C41.6964 241.525 41.7163 241.575 41.7163 241.625C41.7563 242.825 41.8963 244.005 42.0263 245.195C42.1863 246.375 42.3363 247.555 42.5863 248.725C42.6363 248.945 42.4964 249.165 42.2664 249.215C42.1664 249.235 42.0664 249.225 41.9864 249.175L41.9564 249.165C37.5864 246.805 33.2063 244.465 28.8063 242.175L28.8264 242.185C25.6164 240.885 22.4364 239.515 19.1364 238.425C19.0364 238.395 18.9664 238.325 18.9264 238.245L18.9164 238.235C17.7764 235.975 16.6164 233.725 15.4464 231.485L11.8864 224.775C9.47635 220.325 7.07635 215.875 4.56635 211.475L4.55634 211.465C4.48634 211.345 4.49636 211.215 4.54636 211.105C5.79636 208.695 6.88636 206.225 7.98636 203.755C9.04636 201.265 10.1164 198.775 11.0464 196.235C11.1164 196.035 11.3263 195.915 11.5363 195.965H11.5464C13.6664 196.385 15.7964 196.715 17.9264 197.055C20.0564 197.365 22.1863 197.685 24.3363 197.915C24.4263 197.925 24.5063 197.965 24.5663 198.025L24.5764 198.035L37.4363 211.155C37.5063 211.225 37.5063 211.345 37.4363 211.425C37.3663 211.495 37.2464 211.495 37.1764 211.425L23.9764 198.645L24.2163 198.765C22.0963 198.355 19.9663 198.035 17.8363 197.705C15.7063 197.405 13.5664 197.095 11.4164 196.885L11.9063 196.615C10.6563 199.025 9.54634 201.495 8.43634 203.955C7.35634 206.435 6.27635 208.915 5.34635 211.465L5.33634 211.085C7.61634 215.605 9.98637 220.075 12.3664 224.545L15.9864 231.215C17.2064 233.435 18.4363 235.645 19.6863 237.845L19.4663 237.645C22.5963 239.155 25.8364 240.385 29.0464 241.685L29.0663 241.695C33.4763 243.975 37.9064 246.215 42.3564 248.415L41.7263 248.855C41.6863 247.655 41.5464 246.475 41.4164 245.285C41.2564 244.105 41.0964 242.925 40.8564 241.755L40.9063 241.905C38.4463 237.055 35.8763 232.275 33.2863 227.495C30.6863 222.725 28.0764 217.955 25.3864 213.235C25.2664 213.025 25.3364 212.765 25.5464 212.645C25.7564 212.525 26.0164 212.595 26.1364 212.805C26.1364 212.775 26.1364 212.785 26.1464 212.795Z" fill="white"/>
<path d="M41.2964 242.095L28.9464 242.075C28.8464 242.075 28.7764 241.995 28.7764 241.905C28.7764 241.815 28.8464 241.735 28.9464 241.735L41.2864 241.235C41.5264 241.225 41.7264 241.415 41.7364 241.645C41.7464 241.885 41.5564 242.085 41.3264 242.095C41.3064 242.095 41.2964 242.095 41.2964 242.095Z" fill="white"/>
<path d="M24.6064 198.265C24.7664 200.725 24.9964 203.175 25.2564 205.625C25.5064 208.075 25.7864 210.525 26.1964 212.955C26.2364 213.175 26.0865 213.385 25.8665 213.425H25.8364H25.8164L15.3464 214.275H15.3264C15.2964 214.275 15.2764 214.275 15.2464 214.265C13.5464 213.725 11.8164 213.275 10.0864 212.825C8.34642 212.405 6.61644 211.975 4.85644 211.655C4.61644 211.615 4.46644 211.385 4.50644 211.155C4.54644 210.915 4.77644 210.765 5.00644 210.805C5.02644 210.805 5.05644 210.815 5.07644 210.825C6.76644 211.425 8.47644 211.925 10.1964 212.435C11.9164 212.915 13.6364 213.395 15.3864 213.775L15.2964 213.765L25.7364 212.565L25.3464 213.035C25.2564 210.565 25.0364 208.115 24.7964 205.665C24.5564 203.215 24.2864 200.765 23.9564 198.325C23.9364 198.145 24.0564 197.975 24.2464 197.945C24.4264 197.925 24.5964 198.045 24.6264 198.235C24.6064 198.245 24.6064 198.255 24.6064 198.265Z" fill="white"/>
<path d="M43.3364 189.155C40.6664 189.405 37.9764 189.875 35.5264 190.905C34.3364 191.435 33.1564 192.175 32.5664 193.305C31.9864 194.425 32.1164 195.875 32.9064 196.885C33.6964 197.915 34.9364 198.525 36.1864 198.955C37.4564 199.365 38.7764 199.575 40.1064 199.695C42.7764 199.915 45.4764 199.715 48.1264 199.285C53.4164 198.405 58.5664 196.625 63.3464 194.245C65.6964 193.015 67.9464 191.485 69.3964 189.345C70.1164 188.275 70.5464 187.035 70.7464 185.735C70.9464 184.435 70.8964 183.085 70.8164 181.735C70.8064 181.615 70.8964 181.515 71.0164 181.505C71.1264 181.495 71.2264 181.575 71.2464 181.685C71.4564 183.035 71.5964 184.415 71.4764 185.815C71.3764 187.215 70.9364 188.625 70.1964 189.845C68.7064 192.315 66.3064 193.985 63.8964 195.295C59.0264 197.905 53.7164 199.595 48.2564 200.315C45.5264 200.655 42.7564 200.755 40.0164 200.425C38.6464 200.255 37.2864 199.965 35.9764 199.485C34.6864 198.995 33.3964 198.315 32.5164 197.165C31.6164 196.045 31.4064 194.375 32.0664 193.065C32.7364 191.735 34.0064 190.925 35.2464 190.335C36.5064 189.745 37.8564 189.385 39.2064 189.125C40.5564 188.865 41.9164 188.695 43.2964 188.655C43.4364 188.655 43.5464 188.765 43.5564 188.895C43.5764 189.035 43.4764 189.145 43.3364 189.155Z" fill="white"/>
<path d="M73.1063 204.375C75.2763 204.945 77.3463 205.815 79.2563 207.025C81.1163 208.255 82.8963 209.895 83.6863 212.125C83.9363 212.665 83.9963 213.245 84.1163 213.825C84.1763 214.115 84.1363 214.415 84.1463 214.705C84.1264 214.995 84.1863 215.305 84.0963 215.585C83.9563 216.155 83.9063 216.755 83.6263 217.275C83.4063 217.815 83.1763 218.355 82.8363 218.815C82.5263 219.305 82.2163 219.785 81.8063 220.195C81.4163 220.615 81.0763 221.075 80.6263 221.425L79.3363 222.535L77.9463 223.495C77.0263 224.145 76.0063 224.625 75.0463 225.195C74.0263 225.655 73.0263 226.145 71.9963 226.575C70.9563 226.965 69.9164 227.375 68.8664 227.745L65.6863 228.745C61.4063 229.935 57.0564 230.835 52.6763 231.515C50.4864 231.865 48.2863 232.105 46.0863 232.405C43.8863 232.615 41.6763 232.845 39.4763 233.035C35.0663 233.385 30.6363 233.585 26.1963 233.505C21.7663 233.385 17.2863 233.125 12.9863 231.805C11.9163 231.445 10.8664 231.015 9.89635 230.385C8.95635 229.755 8.01634 228.895 7.69634 227.705C7.32634 226.525 7.70633 225.265 8.28633 224.295C8.87633 223.305 9.67633 222.475 10.5363 221.755C10.6463 221.665 10.8064 221.675 10.8964 221.785C10.9864 221.895 10.9764 222.055 10.8664 222.145C10.0464 222.855 9.31633 223.665 8.78633 224.585C8.26633 225.485 7.99633 226.565 8.31633 227.515C8.58633 228.485 9.40632 229.225 10.2763 229.795C11.1663 230.365 12.1763 230.765 13.2063 231.105C17.3863 232.335 21.8263 232.565 26.2063 232.645C30.6063 232.675 35.0063 232.445 39.4063 232.105L45.9863 231.485C48.1663 231.195 50.3563 230.955 52.5363 230.605C56.8863 229.935 61.2063 229.045 65.4363 227.865L68.5763 226.885C69.6063 226.525 70.6263 226.115 71.6563 225.735C72.6663 225.315 73.6463 224.835 74.6363 224.385C75.5663 223.835 76.5663 223.375 77.4463 222.745L78.7863 221.825L80.0063 220.775C80.4363 220.445 80.7463 220.015 81.1163 219.625C81.4963 219.245 81.7863 218.805 82.0663 218.355C83.2163 216.595 83.6463 214.405 82.8763 212.435C82.2063 210.445 80.5963 208.875 78.8563 207.635C77.0663 206.435 75.0763 205.455 72.9963 204.795H72.9863C72.8763 204.765 72.8163 204.645 72.8463 204.535C72.8863 204.405 72.9963 204.345 73.1063 204.375Z" fill="white"/>
<path d="M71.1864 184.995L75.8664 186.705L70.5264 188.195" fill="white"/>
<path d="M71.2764 184.765L76.0264 186.305C76.2464 186.375 76.3764 186.615 76.2964 186.845C76.2464 186.985 76.1364 187.085 76.0064 187.125H75.9864L70.6464 188.615C70.4164 188.675 70.1764 188.545 70.1164 188.315C70.0564 188.085 70.1864 187.845 70.4164 187.785L75.7564 186.295L75.7264 187.115L71.1064 185.225C70.9764 185.175 70.9164 185.025 70.9664 184.905C71.0164 184.785 71.1464 184.725 71.2764 184.765Z" fill="white"/>
<path d="M69.2666 190.385L64.4766 187.425L66.1166 193.275" fill="white"/>
<path d="M69.2666 190.385L64.4766 187.425L66.1166 193.275" stroke="white" stroke-width="0.8629" stroke-miterlimit="10" stroke-linecap="round" stroke-linejoin="round"/>
<path d="M64.8965 194.065L65.3165 199.755L61.1965 195.975" fill="white"/>
<path d="M64.8965 194.065L65.3165 199.755L61.1965 195.975" stroke="white" stroke-width="0.8629" stroke-miterlimit="10" stroke-linecap="round" stroke-linejoin="round"/>
<path d="M56.5664 197.785L51.2764 190.355L51.5764 199.185" fill="white"/>
<path d="M56.5664 197.785L51.2764 190.355L51.5764 199.185" stroke="white" stroke-width="0.8629" stroke-miterlimit="10" stroke-linecap="round" stroke-linejoin="round"/>
<path d="M47.8065 199.865L45.1065 207.085L41.9165 200.185" fill="white"/>
<path d="M47.8065 199.865L45.1065 207.085L41.9165 200.185" stroke="white" stroke-width="0.8629" stroke-miterlimit="10" stroke-linecap="round" stroke-linejoin="round"/>
<path d="M37.6164 199.755L38.2264 192.325L33.8064 198.075" fill="white"/>
<path d="M37.4265 199.745L37.7965 192.295L38.5664 192.595L33.9764 198.215C33.9064 198.305 33.7665 198.315 33.6765 198.245C33.5865 198.175 33.5764 198.045 33.6364 197.955L37.8864 192.075C38.0264 191.885 38.2865 191.835 38.4865 191.975C38.6165 192.065 38.6764 192.225 38.6664 192.375L37.8164 199.785C37.8064 199.895 37.7064 199.965 37.6064 199.955C37.4964 199.935 37.4265 199.845 37.4265 199.745Z" fill="white"/>
<path d="M32.6664 192.645L30.2463 186.595L35.6364 190.355" fill="white"/>
<path d="M32.5164 192.705L29.8464 186.755C29.7464 186.545 29.8464 186.285 30.0564 186.195C30.1964 186.135 30.3564 186.155 30.4764 186.235L30.4964 186.245L35.8964 190.005C36.0964 190.145 36.1364 190.405 36.0064 190.605C35.8664 190.805 35.6064 190.845 35.4064 190.715L30.0064 186.955L30.6564 186.445L32.8264 192.595C32.8564 192.675 32.8164 192.775 32.7264 192.805C32.6364 192.815 32.5464 192.775 32.5164 192.705Z" fill="white"/>
<path d="M40.1562 189.275L41.3663 184.125L42.7263 188.945" fill="white"/>
<path d="M39.9164 189.215L40.9364 184.025C40.9764 183.795 41.2064 183.645 41.4364 183.685C41.6064 183.715 41.7364 183.845 41.7764 184.005L42.9364 188.885C42.9664 189.005 42.8864 189.125 42.7764 189.155C42.6664 189.185 42.5464 189.115 42.5164 189.005L40.9464 184.235L41.7864 184.215L40.3964 189.315C40.3564 189.445 40.2264 189.525 40.0964 189.485C39.9764 189.465 39.8964 189.335 39.9164 189.215Z" fill="white"/>
<path d="M75.4365 205.415L80.0565 200.775L79.3265 207.495" fill="white"/>
<path d="M75.3164 205.295L79.7464 200.465C79.9064 200.295 80.1764 200.285 80.3464 200.435C80.4464 200.535 80.4965 200.665 80.4765 200.795V200.805L79.6465 207.525C79.6265 207.705 79.4565 207.845 79.2665 207.815C79.0865 207.795 78.9565 207.625 78.9765 207.445L79.6165 200.705L80.3464 201.055L75.5364 205.505C75.4664 205.565 75.3664 205.565 75.3064 205.495C75.2664 205.455 75.2664 205.355 75.3164 205.295Z" fill="white"/>
<path d="M82.5364 210.705L76.8264 212.575L83.7264 214.555" fill="white"/>
<path d="M82.6665 211.115L76.9565 212.985L76.9364 212.165L83.7864 214.325C83.9164 214.365 83.9865 214.505 83.9465 214.635C83.9065 214.765 83.7765 214.835 83.6465 214.805L76.6965 213.005C76.4665 212.945 76.3265 212.715 76.3865 212.485C76.4265 212.335 76.5365 212.235 76.6665 212.185H76.6765L82.3865 210.315C82.6165 210.245 82.8565 210.365 82.9265 210.595C83.0165 210.805 82.8965 211.045 82.6665 211.115Z" fill="white"/>
<path d="M80.4664 220.985L82.0164 228.345L76.0364 224.145" fill="white"/>
<path d="M80.4664 220.985L82.0164 228.345L76.0364 224.145" stroke="white" stroke-width="0.8629" stroke-miterlimit="10" stroke-linecap="round" stroke-linejoin="round"/>
<path d="M72.5764 225.845L67.0564 220.055L68.1764 227.505" fill="white"/>
<path d="M72.5764 225.845L67.0564 220.055L68.1764 227.505" stroke="white" stroke-width="0.8629" stroke-miterlimit="10" stroke-linecap="round" stroke-linejoin="round"/>
<path d="M63.4464 228.885L62.4764 234.625L59.3564 229.845" fill="white"/>
<path d="M63.4464 228.885L62.4764 234.625L59.3564 229.845" stroke="white" stroke-width="0.8629" stroke-miterlimit="10" stroke-linecap="round" stroke-linejoin="round"/>
<path d="M55.6164 230.575L52.2664 224.375L51.5664 231.235" fill="white"/>
<path d="M55.6164 230.575L52.2664 224.375L51.5664 231.235" stroke="white" stroke-width="0.8629" stroke-miterlimit="10" stroke-linecap="round" stroke-linejoin="round"/>
<path d="M50.2264 231.425L48.2065 237.765L46.1064 231.935" fill="white"/>
<path d="M50.6363 231.555L48.6163 237.905V237.915C48.5463 238.145 48.3063 238.265 48.0763 238.195C47.9463 238.155 47.8463 238.045 47.7963 237.925L45.8263 232.045C45.7763 231.885 45.8563 231.725 46.0163 231.665C46.1663 231.615 46.3263 231.695 46.3863 231.835L48.6063 237.615L47.7863 237.635L49.8063 231.285C49.8763 231.055 50.1163 230.935 50.3463 231.005C50.5863 231.085 50.7063 231.325 50.6363 231.555Z" fill="white"/>
<path d="M42.5867 232.305L38.5267 224.635L37.3467 232.725" fill="white"/>
<path d="M42.3666 232.415L38.1466 224.835L38.9566 224.695L37.6566 232.765C37.6266 232.935 37.4765 233.045 37.3065 233.015C37.1465 232.985 37.0365 232.835 37.0565 232.675L38.1066 224.565C38.1366 224.335 38.3465 224.165 38.5865 224.195C38.7365 224.215 38.8566 224.305 38.9166 224.425L42.8166 232.175C42.8766 232.295 42.8266 232.445 42.7066 232.505C42.5766 232.585 42.4266 232.535 42.3666 232.415Z" fill="white"/>
<path d="M32.4563 232.995C32.4463 232.995 29.2263 240.085 29.2263 240.085L27.2163 233.095" fill="white"/>
<path d="M32.4563 232.995C32.4463 232.995 29.2263 240.085 29.2263 240.085L27.2163 233.095" stroke="white" stroke-width="0.8629" stroke-miterlimit="10" stroke-linecap="round" stroke-linejoin="round"/>
<path d="M21.0263 232.845L18.8863 223.895L16.2063 232.225" fill="white"/>
<path d="M20.7964 232.905L18.4663 223.995L19.2964 224.025L16.4663 232.305C16.4163 232.445 16.2564 232.525 16.1164 232.475C15.9764 232.425 15.8964 232.275 15.9464 232.135L18.4764 223.755C18.5464 223.525 18.7864 223.395 19.0064 223.465C19.1564 223.515 19.2663 223.635 19.3063 223.785L21.2564 232.785C21.2864 232.915 21.2064 233.035 21.0764 233.065C20.9564 233.095 20.8364 233.025 20.7964 232.905Z" fill="white"/>
<path d="M11.2766 230.755L6.71655 233.975L8.62656 228.815" fill="white"/>
<path d="M11.4165 230.955L6.96651 234.325C6.77651 234.465 6.50654 234.435 6.36654 234.245C6.27654 234.125 6.25652 233.955 6.31652 233.825L8.34652 228.715C8.40652 228.565 8.58653 228.485 8.73653 228.545C8.88653 228.605 8.95651 228.775 8.90651 228.925L7.11654 234.125L6.46651 233.625L11.1265 230.555C11.2465 230.475 11.3965 230.515 11.4765 230.625C11.5465 230.735 11.5265 230.875 11.4165 230.955Z" fill="white"/>
<path d="M8.41632 224.635L6.71631 220.235L10.1563 222.435" fill="white"/>
<path d="M8.21644 224.715L6.31644 220.385C6.21644 220.175 6.31644 219.915 6.53644 219.825C6.67644 219.765 6.83646 219.785 6.95646 219.865L10.2864 222.235C10.3864 222.305 10.4164 222.455 10.3364 222.565C10.2664 222.665 10.1364 222.695 10.0264 222.635L6.47645 220.595L7.11646 220.075L8.61646 224.555C8.65646 224.665 8.59645 224.795 8.47645 224.825C8.37645 224.865 8.26644 224.815 8.21644 224.715Z" fill="white"/>
<path d="M161.96 245.118C185.182 246.007 207.654 238.415 229.146 230.565C238.484 227.158 247.907 223.622 255.849 218.104C263.791 212.587 270.211 204.755 271.379 195.849C273.255 181.629 261.748 168.409 261.602 154.078C261.498 144.321 266.647 135.248 270.086 125.972C273.276 117.381 275.068 108.383 275.36 99.3471C275.548 93.7555 275.089 87.9232 272.004 83.0537C263.791 70.0374 242.466 70.13 229.166 61.039C224.08 57.5581 220.328 52.8182 216.201 48.4486C198.899 30.1 173.863 17.6207 147.202 14.0843C141.865 13.3807 136.883 14.5657 131.964 16.5653C126.794 18.6575 122.583 21.4533 119.581 25.7489C112.515 35.8767 107.053 46.9119 103.405 58.3728C101.446 64.5384 99.7156 71.278 94.1915 75.4069C91.1272 77.7028 87.2291 78.8877 83.4977 80.2208C66.6753 86.1827 51.1037 96.2551 42.6404 110.475C34.1563 124.676 34.0104 143.339 45.0585 156.078C50.1031 161.892 57.0447 166.15 63.1316 171.112C69.2393 176.074 74.7843 182.277 75.6181 189.572C76.5145 197.515 71.6783 205.384 72.8456 213.309C74.1172 221.826 81.976 228.325 90.0849 233.009C114.954 247.377 146.952 251.543 175.427 244.118" fill="#797979" fill-opacity="0.4"/>
<path d="M290.414 56.4473C292.654 60.3355 274.861 67.5194 274.861 67.5194C276.675 55.9288 288.192 52.5591 290.414 56.4473Z" fill="#A9B0F5"/>
<path d="M240.663 105.568C240.608 105.327 237.571 94.2183 242.866 94.0886C243.885 94.0701 244.662 94.4589 245.273 95.1255C247.829 97.9583 247.106 105.568 247.106 105.568C247.106 105.568 256.271 96.8104 258.604 101.606C260.937 106.401 243.292 116.103 243.292 116.103C243.292 116.103 231.794 116.103 230.628 111.734C229.535 107.605 237.756 110.012 238.682 110.308C237.719 109.975 229.073 106.827 231.646 102.439C234.331 97.8287 240.515 105.383 240.663 105.568Z" fill="#A9B0F5"/>
<path d="M245.792 27.4522C248.106 31.1367 237.256 40.4129 237.256 40.4129C237.256 40.4129 222.166 36.6358 222.518 30.8035C222.87 24.9711 231.572 29.4889 231.572 29.4889C231.572 29.4889 226.573 23.0641 231.572 19.9535C236.571 16.8615 238.127 29.9517 238.127 29.9517C238.127 29.9517 243.496 23.7676 245.792 27.4522Z" fill="#A9B0F5"/>
<path d="M230.276 180.444C230.498 180.296 240.163 173.76 242.163 178.648C244.181 183.61 222.185 191.535 222.185 191.535C218.667 189.257 211.539 182.888 213.594 179.777C215.464 176.926 219.574 181.925 219.778 182.184C219.611 181.851 214.297 171.649 219.223 170.168C224.222 168.65 224.092 180.462 224.092 180.462C224.092 180.462 224.851 167.891 229.017 168.909C233.146 169.89 230.35 180.222 230.276 180.444Z" fill="#A9B0F5"/>
<path d="M215.149 86.3864C221.259 87.4973 218.889 102.458 218.112 114.974C217.334 127.509 212.576 160.984 210.354 169.761C209.743 172.186 208.502 176.685 206.965 182.184L204.762 190.072C204.669 190.405 204.577 190.738 204.484 191.053L204.336 191.59C204.244 191.923 204.151 192.238 204.058 192.571L203.447 194.756C200.041 206.995 196.449 220.067 195.153 226.084C194.727 228.028 194.505 230.12 194.412 232.213C193.986 242.285 196.782 252.913 196.782 252.913C160.64 264.744 134.2 248.895 134.2 248.895L140.884 219.696C123.406 205.754 100.91 163.354 95.8922 146.82C90.8746 130.268 91.8929 127.398 97.1883 128.416C103.409 129.601 131.034 168.391 131.034 168.391C131.034 168.391 131.219 164.854 132.886 143.469C134.552 122.084 134.756 56.262 146.643 57.2063C158.548 58.1321 156.937 145.709 156.937 145.709C156.937 145.709 159.825 99.2915 160.381 85.942C160.936 72.574 162.455 52.3368 168.916 53.1699C175.397 54.0031 175.934 63.6311 176.36 71.9074C176.767 80.1652 177.878 144.635 177.878 144.635C177.878 144.635 182.155 106.346 184.488 89.1266C186.821 71.9074 186.691 60.2613 192.69 60.8908C198.689 61.5389 197.726 76.8325 197.393 87.4417C197.078 98.0325 197.93 145.987 197.93 145.987C200.411 134.396 209.039 85.294 215.149 86.3864ZM197.578 186.739C203.262 164.262 188.932 154.134 170.416 171.427C170.416 171.427 155.585 150.931 141.514 158.337C127.424 165.743 141.514 201.311 170.416 212.938C170.398 212.92 191.894 209.217 197.578 186.739Z" fill="white"/>
<path d="M189.579 182.351L179.748 181.518L174.489 181.073C174.489 181.055 174.508 181.018 174.508 180.999L161.677 179.888L160.603 179.796C160.603 179.796 160.603 179.833 160.621 179.925L154.734 179.425L145.939 178.685C145.939 178.685 148.661 193.793 167.416 194.737C186.154 195.682 190.69 182.462 190.69 182.462L189.579 182.351ZM170.397 171.427C188.931 154.133 203.244 164.261 197.559 186.739C191.875 209.216 170.397 212.919 170.397 212.919C141.495 201.31 127.423 165.743 141.495 158.318C155.585 150.912 170.397 171.427 170.397 171.427Z" fill="#A9B0F5"/>
<path d="M189.579 182.351L190.69 182.444C190.69 182.444 186.154 195.664 167.417 194.719C148.679 193.775 145.939 178.667 145.939 178.667L154.734 179.407C154.993 180.5 157.178 188.461 165.454 189.572C174.267 190.738 179.322 183.721 179.748 181.518L189.579 182.351Z" fill="white"/>
<path d="M174.49 181.073L179.748 181.518C179.341 183.721 174.267 190.738 165.454 189.572C157.178 188.479 154.993 180.499 154.734 179.407L160.622 179.907C160.751 180.722 161.64 185.313 166.51 185.628C171.786 185.961 174.045 182.666 174.49 181.073Z" fill="#FCBC3B"/>
<path d="M161.677 179.888L174.508 180.999C174.508 181.018 174.489 181.055 174.489 181.073L160.622 179.907C160.603 179.833 160.603 179.777 160.603 179.777L161.677 179.888Z" fill="#293753"/>
<path d="M160.622 179.907L174.49 181.073C174.045 182.666 171.786 185.961 166.509 185.628C161.64 185.332 160.751 180.722 160.622 179.907Z" fill="#293753"/>
<path d="M196.264 252.635C196.134 252.672 196.153 252.987 196.153 252.857L196.097 252.635L195.986 252.191L195.764 251.302L195.356 249.506C195.097 248.302 194.857 247.099 194.634 245.895C194.208 243.47 193.875 241.026 193.69 238.582C193.283 233.694 193.449 228.584 194.69 223.788C196.967 214.271 199.578 204.884 202.207 195.478L206.151 181.388C207.428 176.704 208.854 171.982 209.909 167.317C211.817 157.818 213.205 148.153 214.557 138.525C215.89 128.86 217.019 119.251 217.63 109.493C218.001 104.642 218.501 99.7729 218.315 94.996C218.186 92.6631 217.945 90.145 216.797 88.4416C216.501 88.0342 216.149 87.7195 215.742 87.4973C215.538 87.3862 215.316 87.3121 215.094 87.2751C214.909 87.2566 214.909 87.2381 214.742 87.3121C214.094 87.6269 213.372 88.7378 212.853 89.7191C210.724 93.9221 209.428 98.6805 208.095 103.328C206.799 108.012 205.669 112.734 204.577 117.492C202.411 126.99 200.559 136.544 198.56 146.117C198.504 146.45 198.171 146.654 197.837 146.598C197.541 146.543 197.356 146.283 197.338 146.006C196.986 131.508 196.727 116.992 196.597 102.495C196.504 95.2552 196.523 87.9417 196.801 80.7207C196.875 77.1102 196.893 73.4997 196.541 69.9633C196.356 68.2044 196.079 66.4454 195.523 64.8346C194.968 63.2423 193.986 61.8351 192.598 61.7425C191.098 61.5389 190.006 62.6128 189.32 64.1866C188.635 65.7233 188.247 67.4823 187.913 69.2227C187.265 72.7406 186.876 76.3511 186.451 79.9431C185.636 87.164 184.562 94.3479 183.692 101.532L178.508 144.728C178.47 145.061 178.174 145.302 177.841 145.265C177.526 145.228 177.304 144.969 177.304 144.672L176.212 97.1808L175.286 73.4627C175.101 69.5375 175.008 65.5752 174.286 61.8166C173.934 59.9651 173.434 58.1135 172.49 56.6323C171.62 55.1326 170.028 54.1883 168.491 54.1328C167.158 54.1328 165.991 55.8732 165.269 57.5396C164.51 59.2615 163.992 61.15 163.547 63.0386C162.677 66.8527 162.251 70.778 161.862 74.6847C161.159 82.5352 160.992 90.4597 160.474 98.3657L157.604 145.783C157.585 146.117 157.289 146.376 156.956 146.357C156.641 146.339 156.382 146.061 156.382 145.746V145.728C156.493 128.62 156.123 111.493 154.993 94.4405C154.382 85.9235 153.623 77.3879 151.901 69.0931C151.457 67.0379 150.938 64.9827 150.216 63.0386C149.864 62.0758 149.457 61.1315 148.957 60.2798C148.476 59.4467 147.846 58.669 147.198 58.3728C146.606 58.0765 145.791 58.2061 145.124 58.6505C144.439 59.1319 143.828 59.9095 143.329 60.7612C142.329 62.4831 141.625 64.4643 141.033 66.4824C138.792 74.5921 137.885 83.1462 137.07 91.6262C136.293 100.125 135.811 108.66 135.404 117.214C134.978 125.768 134.719 134.304 134.071 142.895C133.404 151.431 132.59 159.948 131.682 168.465V168.483C131.645 168.816 131.349 169.057 131.016 169.02C130.831 169.002 130.683 168.909 130.59 168.779C122.628 157.966 114.5 147.228 105.668 137.155C103.447 134.693 101.169 132.156 98.6326 130.249C97.9661 129.786 97.4106 129.397 96.7811 129.36C96.022 129.231 95.2629 129.194 94.7444 129.36C93.8187 129.545 93.578 131.138 93.6891 132.712C93.9298 135.878 94.8185 139.155 95.6887 142.358C96.596 145.598 97.5587 148.746 98.7993 151.838C103.798 164.225 110.149 176.111 117.092 187.535C120.573 193.257 124.35 198.793 128.276 204.181C132.275 209.513 136.422 214.753 141.31 219.252L141.347 219.289C141.514 219.437 141.57 219.659 141.514 219.863L134.811 249.062L134.534 248.395C139.126 250.932 144.236 252.746 149.364 254.098C154.512 255.431 159.807 256.283 165.121 256.56C170.435 256.875 175.786 256.634 181.063 255.931C183.692 255.56 186.321 255.098 188.913 254.487C190.228 254.209 191.487 253.839 192.783 253.505C194.042 253.135 195.023 252.876 196.264 252.635ZM197.338 253.228C196.004 253.764 194.449 254.338 193.116 254.69C191.801 255.023 190.505 255.412 189.191 255.69C186.562 256.32 183.895 256.782 181.229 257.153C175.878 257.875 170.453 258.116 165.047 257.782C159.64 257.486 154.29 256.634 149.05 255.283C143.828 253.894 138.718 252.098 133.904 249.45C133.664 249.321 133.552 249.062 133.627 248.802V248.784L140.311 219.585L140.533 220.196C137.755 218.215 135.237 215.864 132.923 213.383C130.571 210.92 128.424 208.291 126.369 205.588C122.24 200.2 118.574 194.516 115.074 188.739C108.131 177.148 101.836 165.187 96.8366 152.578C95.5961 149.412 94.6148 146.135 93.7076 142.876C92.8374 139.599 91.9486 136.341 91.6894 132.786C91.6524 131.897 91.6524 130.971 91.9116 129.971C92.0412 129.471 92.2634 128.953 92.6522 128.472C93.0225 127.99 93.5965 127.638 94.1334 127.472C95.2443 127.138 96.2071 127.268 97.0959 127.398C98.1883 127.527 99.0585 128.157 99.7621 128.657C102.576 130.823 104.798 133.36 107.076 135.896C111.538 140.988 115.648 146.339 119.703 151.708C123.758 157.096 127.702 162.54 131.59 168.039L130.479 168.354C130.849 159.799 131.312 151.227 131.923 142.691C132.442 134.193 132.738 125.62 133.219 117.066C133.664 108.512 134.2 99.9396 134.997 91.404C135.867 82.8685 136.774 74.2959 139.144 65.89C139.774 63.7977 140.496 61.7055 141.662 59.7244C142.255 58.7431 142.977 57.7618 144.051 57.0026C145.124 56.262 146.698 55.9102 148.068 56.5768C149.364 57.2248 150.05 58.2802 150.661 59.2615C151.253 60.2613 151.679 61.2982 152.049 62.335C152.79 64.4273 153.327 66.538 153.771 68.6487C155.493 77.1472 156.215 85.7198 156.789 94.2739C157.844 111.401 157.919 128.564 157.622 145.691L156.4 145.635C157.419 129.842 158.344 114.03 159.159 98.2176C159.64 90.3116 159.752 82.4056 160.418 74.4811C160.751 70.5188 161.233 66.5565 162.01 62.6313C162.418 60.6686 162.899 58.706 163.695 56.7805C164.103 55.8177 164.566 54.8734 165.288 53.9846C165.973 53.1144 167.065 52.2627 168.435 52.1701C170.898 52.1331 173.046 53.5588 174.249 55.4288C175.49 57.2803 176.082 59.317 176.526 61.3167C177.341 65.353 177.508 69.3338 177.674 73.3146C177.915 81.2576 177.841 89.1637 177.897 97.0882L178.563 144.598L177.341 144.543C178.896 130.119 180.47 115.696 182.229 101.291C183.062 94.0702 184.118 86.9048 184.914 79.7023C185.34 76.0919 185.71 72.4814 186.358 68.8709C186.71 67.0564 187.08 65.2419 187.876 63.4645C188.284 62.5757 188.802 61.6685 189.654 60.9649C190.487 60.2243 191.746 59.9465 192.801 60.0576C193.931 60.1502 195.005 60.7983 195.671 61.5944C196.375 62.4091 196.782 63.3163 197.134 64.2236C197.782 66.0566 198.06 67.9081 198.263 69.7411C198.634 73.4257 198.578 77.0732 198.504 80.7207C198.189 87.9972 198.152 95.1811 198.208 102.458L198.615 145.969L197.412 145.857C199.3 136.322 201.078 126.713 203.17 117.177C204.207 112.4 205.318 107.642 206.577 102.921C207.873 98.1991 209.169 93.4777 211.409 88.9415C212.057 87.8491 212.557 86.6456 214.075 85.7754C214.446 85.5532 215.094 85.4976 215.501 85.6087C215.871 85.6828 216.223 85.8124 216.575 85.979C217.26 86.3308 217.815 86.8678 218.241 87.4417C219.056 88.6267 219.426 89.9043 219.686 91.1633C219.926 92.4223 220.056 93.6814 220.111 94.9219C220.315 99.9025 219.834 104.772 219.463 109.642C218.908 119.362 217.778 129.138 216.482 138.785C215.149 148.468 213.798 158.115 211.891 167.742C210.817 172.593 209.428 177.222 208.15 181.944L204.244 196.034C201.689 205.44 198.985 214.808 196.671 224.251C195.431 228.898 195.153 233.657 195.468 238.489C195.616 240.896 195.838 243.303 196.171 245.692C196.338 246.895 196.523 248.08 196.745 249.265L197.078 251.043L197.264 251.931L197.356 252.376L197.412 252.598C197.356 252.58 197.43 253.042 197.338 253.228Z" fill="black"/>
<path d="M170.435 212.549C172.009 212.124 173.897 211.476 175.564 210.772C177.249 210.031 178.915 209.217 180.47 208.254C183.636 206.384 186.469 204.014 188.895 201.311C190.154 199.978 191.172 198.478 192.227 196.978C193.098 195.386 194.079 193.83 194.708 192.127C196.116 188.794 197.152 185.221 197.615 181.61C198.115 178.018 198.06 174.297 196.986 170.909C195.93 167.557 193.523 164.595 190.098 163.799C186.71 162.91 183.007 163.91 179.767 165.465C176.452 167.02 173.471 169.279 170.694 171.723L170.676 171.742C170.49 171.89 170.231 171.89 170.065 171.705L170.028 171.668C167.361 168.242 164.232 165.113 160.77 162.503C157.308 159.948 153.364 157.837 149.142 157.485C145.05 157.17 140.477 158.744 138.459 162.299C136.385 165.854 136.552 170.446 137.422 174.575C139.292 182.999 143.977 190.664 149.661 197.182C155.382 203.681 162.64 209.032 170.435 212.549ZM170.361 213.272C166.01 211.679 162.159 209.661 158.455 207.087C154.771 204.569 151.42 201.588 148.439 198.274C145.421 194.978 142.773 191.349 140.625 187.424C138.459 183.517 136.719 179.333 135.793 174.908C135.33 172.705 135.071 170.427 135.2 168.131C135.33 165.854 135.848 163.502 137.089 161.466C138.292 159.411 140.329 157.855 142.458 157.022C144.606 156.152 146.976 155.837 149.272 156.041C153.901 156.504 158.011 158.818 161.492 161.54C164.991 164.317 168.065 167.557 170.731 171.149L170.083 171.094C172.805 168.502 175.749 166.076 179.156 164.299C182.488 162.521 186.488 161.336 190.45 162.262C192.394 162.725 194.264 163.743 195.653 165.224C197.06 166.687 198.023 168.483 198.634 170.353C199.837 174.112 199.893 178.074 199.393 181.851C198.911 185.647 197.93 189.368 196.356 192.868C195.653 194.664 194.616 196.274 193.672 197.941C192.542 199.496 191.45 201.07 190.117 202.459C187.524 205.273 184.432 207.606 181.1 209.439C179.452 210.402 177.693 211.105 175.915 211.79C174.119 212.42 172.453 212.975 170.361 213.272Z" fill="black"/>
<path d="M189.654 183.11C174.971 182.092 160.511 180.981 145.847 179.648L146.902 178.481C147.791 182.777 150.438 186.98 154.123 189.646C157.808 192.405 162.436 193.664 167.065 193.979C171.713 194.256 176.434 193.571 180.563 191.59C182.599 190.553 184.451 189.22 186.006 187.572C186.802 186.758 187.45 185.85 188.08 184.925C188.358 184.443 188.672 183.98 188.895 183.48C189.024 183.24 189.135 182.98 189.246 182.74L189.395 182.369L189.469 182.184L189.487 182.147C189.487 182.129 189.432 182.314 189.432 182.406C189.413 182.684 189.506 182.962 189.654 183.11ZM191.709 181.777C191.82 181.999 191.913 182.351 191.857 182.684C191.839 182.814 191.765 183.036 191.765 183.055L191.746 183.11L191.635 183.332L191.413 183.777C191.265 184.073 191.117 184.351 190.95 184.61C190.635 185.165 190.265 185.684 189.913 186.202C189.154 187.202 188.339 188.165 187.413 188.998C185.617 190.72 183.525 192.108 181.285 193.127C176.767 195.108 171.805 195.737 166.991 195.367C162.177 195.089 157.289 193.701 153.29 190.849C151.253 189.461 149.55 187.628 148.143 185.61C146.717 183.573 145.624 181.388 144.995 178.852C144.884 178.333 145.217 177.815 145.754 177.704C145.847 177.685 145.939 177.685 146.013 177.685H146.05C161.196 178.87 176.564 180.277 191.709 181.777Z" fill="black"/>
<path d="M148.031 170.372C148.235 171.76 148.328 173.167 148.402 174.556C148.476 175.945 148.513 177.352 148.383 178.74C148.346 179.111 148.031 179.37 147.661 179.351C147.328 179.314 147.087 179.055 147.05 178.74C146.921 177.352 146.958 175.945 147.032 174.556C147.106 173.167 147.217 171.76 147.402 170.372C147.42 170.205 147.587 170.094 147.754 170.112C147.92 170.131 148.013 170.223 148.031 170.372Z" fill="black"/>
<path d="M155.012 170.909C155.215 172.297 155.308 173.704 155.382 175.093C155.456 176.482 155.493 177.889 155.363 179.277C155.326 179.648 155.012 179.925 154.641 179.888C154.308 179.851 154.067 179.592 154.03 179.277C153.901 177.889 153.938 176.482 154.012 175.093C154.086 173.704 154.197 172.297 154.382 170.909C154.401 170.742 154.567 170.631 154.734 170.649C154.882 170.668 154.993 170.779 155.012 170.909Z" fill="black"/>
<path d="M161.973 171.538C162.177 172.927 162.27 174.334 162.344 175.723C162.418 177.111 162.455 178.518 162.325 179.907C162.288 180.277 161.973 180.537 161.603 180.518C161.27 180.481 161.029 180.222 160.992 179.907C160.862 178.518 160.899 177.111 160.974 175.723C161.048 174.334 161.159 172.927 161.344 171.538C161.362 171.372 161.529 171.26 161.696 171.279C161.862 171.298 161.955 171.409 161.973 171.538Z" fill="black"/>
<path d="M168.954 172.112C169.157 173.5 169.25 174.908 169.324 176.296C169.398 177.685 169.435 179.092 169.305 180.481C169.268 180.851 168.954 181.129 168.583 181.092C168.25 181.055 168.009 180.795 167.972 180.481C167.843 179.092 167.88 177.685 167.954 176.296C168.028 174.908 168.139 173.5 168.324 172.112C168.343 171.945 168.509 171.834 168.676 171.853C168.842 171.871 168.935 171.964 168.954 172.112Z" fill="black"/>
<path d="M175.934 172.779C176.137 174.167 176.23 175.574 176.304 176.963C176.378 178.352 176.415 179.759 176.286 181.147C176.249 181.518 175.934 181.777 175.563 181.758C175.23 181.721 174.99 181.462 174.952 181.147C174.823 179.759 174.86 178.352 174.934 176.963C175.008 175.574 175.119 174.167 175.304 172.779C175.323 172.612 175.489 172.501 175.656 172.519C175.804 172.538 175.915 172.649 175.934 172.779Z" fill="black"/>
<path d="M182.895 173.334C183.099 174.723 183.192 176.13 183.266 177.519C183.34 178.907 183.377 180.314 183.247 181.703C183.21 182.073 182.895 182.351 182.525 182.314C182.192 182.277 181.951 182.018 181.914 181.703C181.785 180.314 181.822 178.907 181.896 177.519C181.97 176.13 182.081 174.723 182.266 173.334C182.284 173.168 182.451 173.056 182.618 173.075C182.784 173.094 182.877 173.205 182.895 173.334Z" fill="black"/>
<path d="M189.876 174C190.08 175.389 190.172 176.796 190.246 178.185C190.32 179.574 190.357 180.981 190.228 182.369C190.191 182.74 189.876 182.999 189.506 182.98C189.172 182.943 188.932 182.684 188.895 182.369C188.765 180.981 188.802 179.574 188.876 178.185C188.95 176.796 189.061 175.389 189.246 174C189.265 173.834 189.432 173.723 189.598 173.741C189.746 173.76 189.857 173.852 189.876 174Z" fill="black"/>
<path d="M155.197 179.185C155.66 180.407 156.234 181.666 156.974 182.758C157.678 183.869 158.511 184.906 159.511 185.721C161.455 187.406 163.88 188.35 166.473 188.498C169.046 188.739 171.638 188.146 173.934 186.906C175.082 186.295 176.156 185.48 177.1 184.554C178.045 183.647 178.97 182.555 179.396 181.407L179.433 181.314C179.507 181.129 179.711 181.036 179.878 181.111C180.044 181.166 180.137 181.351 180.1 181.518C179.47 184.573 177.323 186.795 174.916 188.517C172.453 190.22 169.324 191.016 166.324 190.794C164.825 190.738 163.325 190.331 161.899 189.794C160.492 189.165 159.196 188.313 158.141 187.239C155.993 185.073 154.678 182.333 154.234 179.407C154.197 179.129 154.382 178.889 154.641 178.833C154.882 178.796 155.104 178.926 155.178 179.148L155.197 179.185Z" fill="black"/>
<path d="M160.603 179.777C160.603 179.777 161.159 185.295 166.51 185.628C171.861 185.962 174.101 182.555 174.508 180.999L160.603 179.777Z" fill="black"/>
<path d="M112.704 170.297C113.574 171.482 114.296 172.76 115.037 174.019C115.722 175.315 116.444 176.593 117 177.944C117.055 178.092 116.981 178.277 116.833 178.352C116.703 178.407 116.555 178.352 116.463 178.24C115.593 177.055 114.87 175.778 114.148 174.5C113.463 173.204 112.76 171.927 112.204 170.557C112.149 170.408 112.223 170.242 112.371 170.168C112.482 170.149 112.612 170.186 112.704 170.297Z" fill="black"/>
<path d="M119.907 182.222C121.11 184.406 122.388 186.536 123.869 188.535C125.313 190.553 126.942 192.423 128.646 194.293C128.72 194.368 128.72 194.497 128.627 194.571C128.553 194.627 128.461 194.645 128.387 194.59C126.35 193.071 124.591 191.183 123.054 189.165C121.536 187.128 120.203 184.925 119.258 182.555C119.184 182.37 119.277 182.166 119.462 182.092C119.629 181.981 119.814 182.055 119.907 182.222Z" fill="black"/>
<path d="M118.814 173.741C119.648 175.074 120.314 176.463 121.055 177.833C121.758 179.222 122.517 180.555 123.202 181.981C123.258 182.092 123.202 182.24 123.091 182.295C122.999 182.332 122.888 182.314 122.814 182.24C121.721 181.073 120.851 179.74 120.073 178.352C119.314 176.963 118.648 175.5 118.277 173.945C118.24 173.797 118.333 173.63 118.5 173.593C118.629 173.575 118.759 173.63 118.814 173.741Z" fill="black"/>
<path d="M175.36 223.862C173.768 225.473 171.768 226.621 169.657 227.436C167.528 228.195 165.251 228.639 163.01 228.491C162.862 228.473 162.751 228.343 162.751 228.195C162.751 228.065 162.862 227.954 162.973 227.936C165.139 227.565 167.232 227.084 169.231 226.306C171.249 225.566 173.138 224.547 175.045 223.436C175.175 223.362 175.341 223.399 175.415 223.529C175.452 223.64 175.434 223.77 175.36 223.862Z" fill="black"/>
<path d="M183.025 223.51C182.211 224.732 181.118 225.732 179.97 226.64C178.804 227.51 177.563 228.306 176.193 228.843C176.101 228.88 176.008 228.843 175.971 228.75C175.953 228.676 175.971 228.602 176.027 228.565L179.322 225.843C180.415 224.955 181.47 224.01 182.618 223.159C182.729 223.066 182.914 223.103 182.988 223.214C183.099 223.288 183.099 223.418 183.025 223.51Z" fill="black"/>
<path d="M189.006 223.529C188.765 224.344 188.265 225.029 187.71 225.658C187.117 226.251 186.488 226.806 185.71 227.121C185.562 227.195 185.377 227.121 185.303 226.954C185.266 226.843 185.284 226.732 185.34 226.639C185.821 225.991 186.377 225.454 186.895 224.88C187.45 224.344 187.932 223.751 188.561 223.233C188.672 223.14 188.858 223.14 188.95 223.27C189.006 223.344 189.024 223.436 189.006 223.529Z" fill="black"/>
<path d="M187.709 232.25C187.802 233.75 187.617 235.231 187.376 236.712C187.061 238.175 186.71 239.619 186.043 240.989C186.006 241.082 185.895 241.119 185.802 241.063C185.728 241.026 185.691 240.952 185.71 240.896C185.858 239.415 186.173 237.99 186.395 236.545C186.673 235.101 186.876 233.676 187.228 232.231C187.265 232.102 187.395 232.009 187.524 232.046C187.635 232.046 187.709 232.139 187.709 232.25Z" fill="black"/>
<path d="M189.839 239.341C190.024 241.23 189.931 243.1 189.857 244.97C189.709 246.84 189.561 248.691 189.098 250.543C189.061 250.691 188.913 250.784 188.765 250.747C188.654 250.71 188.561 250.617 188.561 250.506C188.339 248.617 188.45 246.747 188.524 244.877C188.691 243.007 188.839 241.156 189.265 239.304C189.302 239.156 189.45 239.045 189.617 239.082C189.746 239.119 189.839 239.23 189.839 239.341Z" fill="black"/>
<path d="M150.494 98.1436C148.698 97.8288 146.921 97.5511 145.143 97.477C143.347 97.3659 141.57 97.4585 139.755 97.5881C139.625 97.6066 139.514 97.4955 139.514 97.3659C139.514 97.2548 139.57 97.1622 139.681 97.1252C141.459 96.5883 143.347 96.4587 145.199 96.5512C147.05 96.6994 148.902 97.0512 150.605 97.7918C150.698 97.8288 150.735 97.9399 150.698 98.0325C150.642 98.1065 150.568 98.1621 150.494 98.1436Z" fill="black"/>
<path d="M173.916 112.456C172.12 112.141 170.342 111.863 168.565 111.789C166.769 111.678 164.991 111.771 163.177 111.9C163.047 111.919 162.936 111.808 162.936 111.678C162.936 111.567 162.992 111.474 163.103 111.437C164.88 110.901 166.769 110.789 168.62 110.863C170.472 111.012 172.324 111.363 174.027 112.104C174.12 112.141 174.157 112.252 174.12 112.345C174.082 112.419 174.008 112.456 173.916 112.456Z" fill="black"/>
<path d="M216.371 109.975C214.927 109.679 213.52 109.364 212.094 109.234C210.669 109.049 209.224 109.049 207.762 109.031C207.632 109.031 207.54 108.92 207.54 108.79C207.54 108.679 207.614 108.586 207.706 108.568C209.169 108.179 210.706 108.179 212.187 108.327C213.687 108.531 215.168 108.92 216.482 109.623C216.575 109.679 216.612 109.771 216.556 109.864C216.538 109.956 216.445 109.993 216.371 109.975Z" fill="black"/>
<path d="M213.909 123.454C212.465 123.158 211.057 122.843 209.632 122.713C208.206 122.528 206.762 122.528 205.299 122.51C205.169 122.51 205.077 122.399 205.077 122.269C205.077 122.158 205.151 122.065 205.244 122.047C206.706 121.658 208.243 121.658 209.724 121.806C211.224 122.01 212.705 122.399 214.02 123.102C214.112 123.158 214.149 123.25 214.094 123.343C214.057 123.436 213.983 123.473 213.909 123.454Z" fill="black"/>
<path d="M195.282 111.956C193.486 111.641 191.709 111.363 189.931 111.289C188.135 111.178 186.358 111.271 184.543 111.4C184.414 111.419 184.303 111.308 184.303 111.178C184.303 111.067 184.358 110.974 184.469 110.937C186.247 110.401 188.135 110.289 189.987 110.363C191.838 110.512 193.69 110.863 195.393 111.604C195.486 111.641 195.523 111.752 195.486 111.845C195.449 111.937 195.356 111.974 195.282 111.956Z" fill="black"/>
<path d="M173.916 91.793C172.12 91.4782 170.342 91.2005 168.565 91.1264C166.769 91.0153 164.991 91.1079 163.177 91.2375C163.047 91.2375 162.936 91.1449 162.936 91.0153C162.936 90.9042 162.992 90.8117 163.103 90.7747C164.88 90.2377 166.769 90.1081 168.62 90.2007C170.472 90.3488 172.324 90.7006 174.027 91.4412C174.12 91.4782 174.157 91.5893 174.12 91.6819C174.082 91.7559 174.008 91.8115 173.916 91.793Z" fill="black"/>
<path d="M195.893 97.6435C194.097 97.3288 192.32 97.0511 190.542 96.977C188.746 96.8659 186.969 96.9585 185.155 97.0881C185.025 97.1066 184.914 96.9955 184.914 96.8659C184.914 96.7548 184.969 96.6622 185.08 96.6252C186.858 96.0883 188.746 95.9772 190.598 96.0512C192.45 96.1994 194.301 96.5511 196.004 97.2918C196.097 97.3288 196.134 97.4399 196.097 97.5325C196.06 97.625 195.967 97.6621 195.893 97.6435Z" fill="black"/>
<path d="M150.494 116.64C148.698 116.326 146.921 116.048 145.143 115.974C143.347 115.863 141.57 115.955 139.755 116.085C139.625 116.103 139.514 115.992 139.514 115.863C139.514 115.752 139.57 115.659 139.681 115.622C141.459 115.085 143.347 114.955 145.199 115.048C147.05 115.196 148.902 115.548 150.605 116.289C150.698 116.326 150.735 116.437 150.698 116.529C150.642 116.622 150.568 116.659 150.494 116.64Z" fill="black"/>
<path d="M193.875 231.639C196.375 228.565 198.763 225.195 201.17 221.918C203.522 218.585 205.947 215.29 208.262 211.92C210.613 208.569 212.946 205.18 215.149 201.736C217.297 198.237 219.667 194.867 221.111 190.961C221.167 190.831 221.259 190.72 221.37 190.646L221.759 190.405C224.722 189.405 227.721 188.294 230.591 187.017C233.461 185.721 236.331 184.332 238.83 182.555C239.441 182.11 240.015 181.61 240.515 181.092C241.015 180.574 241.404 179.963 241.46 179.481C241.46 179.24 241.497 179.055 241.293 178.796L241.071 178.407C240.978 178.296 240.867 178.222 240.756 178.13C240.33 177.778 239.701 177.611 238.997 177.648C236.183 177.833 233.091 179.352 230.924 181.481C230.48 181.907 229.795 181.907 229.351 181.462C229.128 181.24 229.017 180.944 229.036 180.666L229.054 180.148C229.776 178.204 230.128 176.037 230.239 174.001C230.276 172.982 230.221 171.945 229.943 171.112C229.684 170.242 229.073 169.798 228.462 169.779C227.943 169.742 227.295 170.464 226.87 171.334C226.425 172.205 226.147 173.223 225.907 174.241C225.444 176.278 225.259 178.463 225.24 180.555V180.592C225.24 181.277 224.685 181.814 224.018 181.814C223.333 181.814 222.796 181.259 222.796 180.592V180.481C223 178.407 222.907 176.204 222.481 174.186C222.259 173.186 221.889 172.205 221.333 171.52C220.778 170.835 220.019 170.649 219.204 170.964C217.575 171.538 217.667 173.982 218.223 175.908C218.778 177.907 219.704 179.907 220.815 181.647C221.185 182.203 221.037 182.962 220.463 183.332C219.926 183.684 219.204 183.554 218.815 183.055L218.76 182.981C218.241 182.314 217.612 181.592 216.982 181.036C216.371 180.481 215.557 179.981 215.075 179.963C214.816 179.925 214.705 180 214.52 180.148C214.427 180.259 214.316 180.333 214.279 180.481C214.205 180.592 214.15 180.722 214.15 180.87C214.057 181.462 214.335 182.277 214.742 183.036C215.594 184.573 216.89 185.98 218.26 187.239C219.649 188.498 221.167 189.646 222.778 190.516H222.796C223.389 190.85 223.611 191.59 223.296 192.183C222.963 192.775 222.222 192.997 221.63 192.683C221.574 192.645 221.519 192.608 221.463 192.571C219.834 191.312 218.371 190.016 216.964 188.609C215.538 187.221 214.224 185.721 213.131 183.925C212.65 182.999 212.131 181.944 212.279 180.592C212.298 180.259 212.409 179.925 212.557 179.611C212.668 179.277 212.89 179.018 213.131 178.741C213.594 178.222 214.427 177.815 215.149 177.889C216.631 177.963 217.482 178.685 218.371 179.277C219.241 179.925 219.963 180.592 220.685 181.407L218.649 182.74C217.797 180.574 217.056 178.481 216.594 176.222C216.427 175.074 216.205 173.927 216.39 172.686C216.501 172.056 216.668 171.427 217.075 170.834C217.464 170.261 218.056 169.816 218.686 169.594C219.315 169.372 220 169.205 220.722 169.39C221.426 169.52 222.037 169.983 222.463 170.464C223.333 171.464 223.685 172.612 224.074 173.704C224.74 175.926 225.018 178.13 225.259 180.444L222.815 180.351C223.129 178.092 223.537 175.926 224.111 173.741C224.407 172.649 224.777 171.557 225.296 170.483C225.573 169.946 225.888 169.409 226.351 168.909C226.814 168.428 227.536 167.965 228.369 167.928C228.777 167.909 229.165 167.983 229.517 168.131C229.869 168.261 230.221 168.428 230.48 168.705L230.887 169.094L231.184 169.538C231.387 169.835 231.517 170.131 231.628 170.446C232.072 171.668 232.165 172.853 232.165 174.001C232.146 176.315 231.758 178.5 231.387 180.759L229.517 179.426L234.072 177.426C235.59 176.796 237.145 176.148 238.941 176.093C239.812 176.037 240.867 176.241 241.682 176.87C241.867 177.037 242.089 177.204 242.256 177.389L242.645 178.037C242.922 178.407 243.052 179.092 242.996 179.629C242.848 180.74 242.237 181.499 241.663 182.147C241.071 182.777 240.423 183.332 239.775 183.832C237.127 185.813 234.257 187.332 231.369 188.739C228.462 190.146 225.555 191.479 222.555 192.683H222.537L223.185 192.146C220.5 195.349 218.686 199.052 216.538 202.57C214.446 206.125 212.409 209.698 210.224 213.216C209.15 214.993 208.021 216.697 206.855 218.419C205.707 220.141 204.54 221.844 203.263 223.473C200.763 226.788 198.152 229.991 194.912 232.787C194.579 233.083 194.06 233.046 193.783 232.713C193.524 232.416 193.524 231.972 193.764 231.676L193.875 231.639Z" fill="black"/>
<path d="M208.225 214.16C208.225 214.16 212.539 199.496 210.335 192.201C208.132 184.906 206.947 182.185 206.947 182.185L203.429 194.756L206.762 216.29L208.225 214.16Z" fill="black"/>
<path d="M209.706 211.92C209.706 211.92 214.52 209.309 222.759 208.347C230.998 207.384 252.161 196.404 257.771 184.814C257.771 184.814 251.791 194.016 235.775 197.719C230.776 198.885 218.278 199.644 209.706 211.92Z" fill="black"/>
<path d="M229.443 168.464C232.442 159.947 235.109 151.282 237.534 142.599C238.127 140.432 238.719 138.247 239.163 136.044C239.626 133.878 239.904 131.619 240.237 129.379L242.052 115.955C242.107 115.566 242.33 115.233 242.644 115.048L242.663 115.029C245.255 113.696 247.847 112.234 250.273 110.586C252.698 108.956 255.105 107.142 256.846 104.957C257.679 103.883 258.327 102.569 257.716 101.791C257.457 101.272 257.012 101.124 256.512 101.013C255.957 101.013 255.327 101.106 254.698 101.365C252.18 102.402 249.847 104.402 247.903 106.457C247.44 106.938 246.699 106.957 246.218 106.512C245.977 106.272 245.847 105.975 245.847 105.661V105.475C246.273 103.42 246.181 101.161 245.736 99.1432C245.496 98.1434 245.125 97.1806 244.644 96.477C244.107 95.7735 243.644 95.4772 242.978 95.4957C242.293 95.5512 241.922 95.6438 241.478 96.3104C241.052 96.9769 240.811 97.9953 240.7 99.0136C240.534 101.087 240.811 103.365 241.83 105.272C242.126 105.809 241.922 106.494 241.367 106.772C240.996 106.975 240.552 106.938 240.219 106.716L239.682 106.364C238.738 104.827 237.46 103.328 235.979 102.328C235.238 101.809 234.387 101.495 233.627 101.569C232.868 101.624 232.257 102.309 231.905 103.05C231.535 103.809 231.591 104.642 232.035 105.364C232.498 106.068 233.183 106.697 233.942 107.197C235.479 108.197 237.33 108.864 239.108 109.197C239.756 109.327 240.2 109.956 240.071 110.604C239.96 111.234 239.367 111.66 238.738 111.585L238.349 111.53C236.627 110.808 234.664 110.197 232.868 110.178C232.424 110.178 232.017 110.234 231.665 110.345C231.406 110.512 231.183 110.604 231.165 110.937C231.072 111.604 231.461 112.419 232.128 112.974C233.479 114.141 235.497 114.622 237.386 114.918C239.312 115.177 241.33 115.196 243.237 114.918H243.255C243.94 114.826 244.57 115.289 244.662 115.974C244.755 116.659 244.292 117.288 243.607 117.381C243.478 117.399 243.348 117.399 243.237 117.381C241.145 117.047 239.163 116.696 237.145 116.251C235.164 115.733 233.109 115.307 231.331 113.9C230.48 113.196 229.721 112.085 229.85 110.752C229.85 110.012 230.48 109.382 231.054 109.049C231.646 108.79 232.22 108.66 232.776 108.605C234.998 108.456 236.979 108.808 239.089 109.197L238.33 111.53C236.46 110.567 234.757 109.567 233.146 108.271C232.368 107.605 231.591 106.883 231.072 105.901C230.517 104.939 230.461 103.624 230.961 102.643C231.387 101.661 232.202 100.68 233.442 100.476C234.627 100.273 235.701 100.717 236.627 101.18C238.478 102.18 240.015 103.439 241.57 104.846L239.441 105.938C239.367 103.531 238.886 101.384 238.738 99.0136C238.682 97.8286 238.682 96.5696 239.2 95.218C239.46 94.5514 239.96 93.8478 240.682 93.385C241.422 92.9036 242.237 92.7555 243.015 92.774C243.403 92.8295 243.811 92.848 244.181 92.9591C244.551 93.1257 244.94 93.2739 245.273 93.4775C245.57 93.7182 245.884 93.9774 246.144 94.2552L246.755 95.1439C247.403 96.3474 247.643 97.5694 247.829 98.7359C248.162 101.106 248.143 103.328 248.236 105.698L246.162 104.698C248.625 102.791 251.032 100.939 254.068 99.7913C254.827 99.495 255.698 99.3469 256.623 99.4024C257.568 99.532 258.586 100.106 259.012 100.976C259.586 101.791 259.604 102.976 259.29 103.772C259.012 104.624 258.549 105.309 258.086 105.957C256.123 108.456 253.679 110.289 251.291 112.122C248.847 113.9 246.366 115.603 243.774 117.196H243.755L244.385 116.27L242.033 129.693C241.663 131.934 241.33 134.174 240.811 136.414C240.274 138.636 239.756 140.858 239.182 143.061C238.053 147.468 236.812 151.819 235.534 156.189L231.683 169.242C231.498 169.89 230.813 170.26 230.165 170.075C229.517 169.89 229.147 169.205 229.332 168.557C229.424 168.501 229.424 168.483 229.443 168.464Z" fill="black"/>
<path d="M244.033 94.9775C244.274 90.4412 244.403 85.8309 244.292 81.2391C244.255 76.6473 243.903 72.0741 243.311 67.5193C242.718 62.9645 241.607 58.5394 240.311 54.0402C239.071 49.5595 237.756 45.0973 236.09 40.7462C235.942 40.3574 236.034 39.9315 236.312 39.6353L236.479 39.4687C238.071 38.1541 239.626 36.7099 241.071 35.2287C242.496 33.7289 243.885 32.1366 244.774 30.3962C245.218 29.5445 245.459 28.6187 245.218 28.0077C245.088 27.6929 244.792 27.3597 244.514 27.1745C244.2 27.0449 243.848 26.9338 243.422 27.0449C241.719 27.4152 239.96 28.989 239.071 30.748C238.812 31.2479 238.201 31.4515 237.682 31.1923C237.479 31.0812 237.312 30.9146 237.219 30.7109L236.923 30.0814C237.164 28.0633 236.719 26.0266 236.127 24.138C235.794 23.2123 235.423 22.268 234.868 21.5274C234.349 20.7497 233.646 20.2128 233.035 20.2868C232.405 20.3054 231.591 20.9164 231.072 21.5459C230.554 22.1939 230.332 22.9531 230.35 23.8048C230.406 25.4896 231.406 27.3412 232.535 28.7298L232.609 28.8039C233.035 29.3223 232.961 30.0814 232.442 30.4887C232.017 30.8405 231.424 30.8406 230.998 30.5628C230.072 29.9333 228.962 29.4149 227.888 29.0075C226.814 28.6002 225.629 28.378 224.647 28.6002C224.129 28.6743 223.796 29.0076 223.462 29.3593C223.37 29.6 223.222 29.8037 223.148 30.0629C223.092 30.3221 223.018 30.5999 222.981 30.8776C222.889 31.9515 223.5 33.0068 224.277 33.877C225.925 35.5805 228.147 36.784 230.406 37.6542C232.683 38.5244 235.109 39.1169 237.534 39.2465C238.219 39.2835 238.756 39.876 238.719 40.5611C238.682 41.2461 238.09 41.7831 237.404 41.746C237.238 41.746 237.071 41.6905 236.942 41.635L230.072 38.4133C227.832 37.3209 225.555 36.2285 223.722 34.3955C222.851 33.4882 222 32.3032 222.037 30.8405C222.055 30.5073 222.111 30.1555 222.148 29.8222C222.222 29.4889 222.389 29.1372 222.518 28.8039C222.926 28.1929 223.537 27.6189 224.259 27.4152C225.666 26.9153 227.036 27.119 228.332 27.3226C229.628 27.5633 230.85 27.9336 232.128 28.415L230.591 30.2481C229.924 29.2668 229.443 28.304 229.036 27.2301C228.628 26.1747 228.332 25.0453 228.369 23.8048C228.388 22.5828 228.85 21.2867 229.702 20.3979C230.109 19.9165 230.609 19.6018 231.091 19.2685C231.628 18.9722 232.257 18.7131 232.979 18.7131C233.701 18.6945 234.387 19.0093 234.886 19.3981C235.386 19.7869 235.757 20.2683 236.053 20.7497C236.645 21.7125 237.071 22.7124 237.404 23.7122C238.127 25.7303 238.534 27.7485 239.312 29.8222L237.164 29.1742L239.96 27.193C240.885 26.5635 241.848 25.9155 243.126 25.6748C243.737 25.5267 244.496 25.6007 245.144 25.897C245.792 26.2673 246.218 26.7302 246.57 27.3782C247.199 28.7854 246.755 30.1184 246.329 31.1553C245.385 33.2846 243.996 35.0065 242.589 36.6729C241.163 38.3207 239.645 39.8575 238.034 41.3572H238.015L238.404 40.0797C239.33 44.6529 240.608 49.1151 241.978 53.5588C243.329 57.9654 244.755 62.5202 245.607 67.149C246.514 71.7778 246.995 76.4622 247.181 81.1651C247.292 85.868 247.199 90.5708 246.44 95.2737C246.329 95.9403 245.699 96.4031 245.033 96.2921C244.403 96.1995 243.977 95.644 243.996 95.0145L244.033 94.9775Z" fill="black"/>
<path d="M244.644 89.0711C248.791 83.5165 253.791 78.9432 259.253 74.9439C261.993 72.9628 264.918 71.2223 267.899 69.63C270.899 68.0562 274.102 66.8527 277.101 65.5566C280.119 64.2235 283.119 62.7793 285.877 61.0389C287.229 60.1687 288.618 59.2059 289.451 58.058C289.618 57.7802 289.784 57.484 289.803 57.2803C289.803 57.0581 289.84 56.9285 289.599 56.6878C289.303 56.1879 288.636 55.9287 287.97 55.7621C286.563 55.5214 284.97 55.8732 283.563 56.5027C282.137 57.1322 280.804 58.0394 279.712 59.1874C277.453 61.4277 276.083 64.4643 275.527 67.6304V67.6489C275.472 68.0007 275.12 68.2414 274.768 68.1858C274.417 68.1303 274.176 67.797 274.231 67.4267C274.768 64.0384 276.231 60.6871 278.694 58.1876C279.897 56.91 281.36 55.8917 282.971 55.1511C284.581 54.429 286.377 53.9661 288.266 54.2623C289.192 54.4475 290.229 54.8363 290.858 55.7621C291.228 56.0953 291.469 56.8915 291.377 57.4655C291.321 58.095 291.043 58.5394 290.784 58.9652C289.655 60.539 288.21 61.5018 286.803 62.4646C283.933 64.3346 280.915 65.8344 277.879 67.2415C274.787 68.6487 271.75 69.8337 268.843 71.4075C265.974 72.9998 263.159 74.7217 260.53 76.6843C255.309 80.6096 250.439 85.2569 246.681 90.4597L246.625 90.5338C246.236 91.0892 245.459 91.2003 244.922 90.8115C244.366 90.4041 244.237 89.645 244.644 89.0711C244.644 89.0896 244.644 89.0896 244.644 89.0711Z" fill="black"/>
<path d="M234.405 156.707C234.405 156.707 237.96 137.359 234.405 128.212C230.85 119.066 222.407 109.067 222.407 109.067C222.407 109.067 225.907 145.616 234.405 156.707Z" fill="black"/>
<path d="M272.084 107.012C272.084 107.012 265.011 126.935 257.956 132.138C250.884 137.34 237.182 147.802 234.405 156.707C234.405 156.707 240.237 137.581 248.347 130.99C256.457 124.38 261.197 126.694 272.084 107.012Z" fill="black"/>
<path d="M245.662 79.3318C245.662 79.3318 246.255 64.6307 237.793 55.9285C229.332 47.2448 222.629 45.6155 220.537 39.7091C220.537 39.7091 220.889 51.1701 229.332 59.5204C237.812 67.8708 243.2 72.0368 245.662 79.3318Z" fill="black"/>
<path d="M262.696 26.5265C262.696 26.5265 268.381 43.7827 261.993 54.9104C255.624 66.0196 247.032 70.8891 245.644 79.3506C245.644 79.3506 244.848 65.3901 253.883 53.1515C262.937 40.8944 262.234 35.4509 262.696 26.5265Z" fill="black"/>
</svg>
