<svg width="16" height="16" viewBox="0 0 16 16" fill="none" xmlns="http://www.w3.org/2000/svg">
<g clip-path="url(#clip0_272_6248)">
<path d="M7.97528 16C7.71641 16 7.50653 15.7901 7.50653 15.5312C7.50653 15.2724 7.71641 15.0625 7.97528 15.0625C11.8696 15.0625 15.0378 11.8943 15.0378 8C15.0378 4.10572 11.8696 0.9375 7.97528 0.9375C7.71641 0.9375 7.50653 0.727625 7.50653 0.46875C7.50653 0.209875 7.71641 0 7.97528 0C10.1122 0 12.1211 0.832156 13.6322 2.34313C15.1432 3.85413 15.9753 5.86312 15.9753 8C15.9753 10.1369 15.1431 12.1458 13.6322 13.6569C12.1211 15.1678 10.1122 16 7.97528 16Z" fill="#F78B73"/>
<path d="M11.7409 12.2344C11.6793 12.2345 11.6183 12.2224 11.5615 12.1988C11.5046 12.1753 11.4529 12.1407 11.4095 12.0971L7.64383 8.33144C7.55592 8.24354 7.50653 8.12432 7.50652 8.00001V3.29298C7.50652 3.0341 7.71639 2.82423 7.97527 2.82423C8.23414 2.82423 8.44402 3.0341 8.44402 3.29298V7.80585L12.0723 11.4342C12.2554 11.6173 12.2554 11.914 12.0723 12.0971C12.0289 12.1407 11.9772 12.1753 11.9203 12.1988C11.8634 12.2224 11.8025 12.2345 11.7409 12.2344ZM5.25183 1.44554C5.30971 1.44554 5.36858 1.43476 5.42561 1.41198C5.4273 1.41132 5.59417 1.34485 5.7738 1.28869C5.96574 1.22873 6.19264 1.16454 6.19492 1.16391C6.44408 1.09354 6.58896 0.834507 6.51858 0.585382C6.44824 0.336257 6.18939 0.19132 5.94008 0.261726C5.93033 0.264476 5.69871 0.329976 5.49417 0.393882C5.35357 0.438266 5.21455 0.487525 5.07736 0.54157C4.83708 0.637757 4.7203 0.910445 4.81639 1.15076C4.88971 1.33404 5.06574 1.44554 5.25183 1.44554ZM3.35892 1.46454C3.35074 1.47054 3.15677 1.61298 2.98761 1.74444C2.87142 1.83526 2.75844 1.93009 2.64886 2.02879C2.45749 2.20304 2.44364 2.49935 2.6178 2.69079C2.6617 2.73914 2.71525 2.77776 2.77499 2.80415C2.83473 2.83055 2.89933 2.84413 2.96464 2.84404C3.08127 2.84417 3.19374 2.80068 3.27992 2.7221C3.28127 2.72088 3.41424 2.60019 3.56286 2.48473C3.72167 2.36132 3.91174 2.22173 3.91364 2.22035C4.12236 2.06716 4.16736 1.77382 4.01421 1.5651C3.86099 1.35638 3.56764 1.31135 3.35892 1.46454ZM2.01146 3.35982C1.79486 3.21798 1.50436 3.27854 1.36249 3.4951C1.35692 3.50357 1.22511 3.70491 1.11267 3.88735C1.03567 4.01311 0.96306 4.14151 0.894987 4.27232C0.776769 4.50257 0.86755 4.78498 1.09774 4.90326C1.16386 4.93735 1.23718 4.95515 1.31158 4.95516C1.48164 4.95516 1.64577 4.86229 1.72889 4.70066C1.72967 4.69907 1.81199 4.53941 1.91071 4.37926C2.01627 4.20804 2.14542 4.01073 2.14671 4.00876C2.28858 3.79219 2.22799 3.50166 2.01146 3.35982ZM0.448862 7.50801C0.46718 7.51015 0.485607 7.51124 0.50405 7.51126C0.738519 7.51126 0.94105 7.33563 0.969019 7.09707C0.969237 7.09529 0.990144 6.91866 1.02683 6.73238C1.06571 6.5351 1.11758 6.3051 1.11811 6.30279C1.17517 6.05029 1.01674 5.79932 0.764206 5.74226C0.511644 5.68516 0.260769 5.84366 0.203675 6.09616C0.201425 6.10604 0.148425 6.34085 0.107019 6.55116C0.0789413 6.69588 0.0558962 6.84153 0.0379248 6.98785C0.00773731 7.24498 0.191706 7.47788 0.448862 7.50801ZM1.09646 9.60779C1.06782 9.48808 1.04328 9.36742 1.02289 9.24604C0.990206 9.0476 0.958237 8.81397 0.957925 8.81166C0.922894 8.55516 0.686987 8.37547 0.43005 8.41063C0.17355 8.44566 -0.00598144 8.68198 0.0290186 8.93847C0.0303936 8.94851 0.0630186 9.18697 0.0978311 9.39838C0.122212 9.54383 0.151647 9.68839 0.186081 9.83179C0.238675 10.0456 0.430175 10.1887 0.640894 10.1887C0.677987 10.1887 0.715644 10.1842 0.753269 10.175C1.00467 10.1131 1.15833 9.85919 1.09646 9.60779ZM1.89958 11.6019C1.79949 11.4275 1.68771 11.2198 1.68658 11.2178C1.56392 10.9898 1.27958 10.9044 1.05174 11.027C0.823737 11.1497 0.738331 11.4339 0.860987 11.6619C0.865769 11.6708 0.979862 11.8828 1.08652 12.0686C1.16029 12.1962 1.23847 12.3213 1.32092 12.4436C1.41164 12.5765 1.55871 12.648 1.70839 12.648C1.79936 12.648 1.89133 12.6216 1.97211 12.5665C2.18596 12.4206 2.24105 12.129 2.09527 11.9152C2.09424 11.9137 1.99324 11.7652 1.89958 11.6019ZM3.83871 13.7264C3.73856 13.6548 3.64084 13.5798 3.54574 13.5016C3.39089 13.3733 3.21349 13.2179 3.21174 13.2164C3.01708 13.0458 2.72086 13.0653 2.55027 13.26C2.37964 13.4547 2.39917 13.7508 2.59386 13.9215C2.60149 13.9282 2.78255 14.0867 2.94755 14.2235C3.12155 14.3677 3.2913 14.4876 3.29846 14.4926C3.3773 14.5483 3.47149 14.5783 3.56805 14.5782C3.71527 14.5782 3.86021 14.5091 3.95152 14.3796C4.10067 14.1681 4.05017 13.8757 3.83871 13.7264ZM6.10599 14.8124C5.98711 14.7805 5.86937 14.7445 5.75296 14.7045C5.56299 14.6385 5.34242 14.5551 5.34021 14.5543C5.09817 14.4626 4.82758 14.5846 4.73589 14.8268C4.64427 15.0689 4.76627 15.3394 5.00839 15.4311C5.01789 15.4347 5.24302 15.5198 5.44546 15.5901C5.65889 15.6642 5.85986 15.717 5.8683 15.7193C5.90814 15.7297 5.94811 15.7347 5.98742 15.7347C6.19539 15.7347 6.38536 15.5953 6.44055 15.3847C6.50624 15.1342 6.35642 14.878 6.10599 14.8124Z" fill="#F78B73"/>
</g>
<defs>
<clipPath id="clip0_272_6248">
<rect width="16" height="16" fill="white"/>
</clipPath>
</defs>
</svg>
