<svg width="24" height="24" viewBox="0 0 24 24" fill="none" xmlns="http://www.w3.org/2000/svg">
<path d="M22.5071 10.9603C22.412 10.942 22.3135 10.9547 22.2261 10.9965C22.1387 11.0383 22.0671 11.107 22.0216 11.1926L21.9582 11.3053C21.9161 11.3823 21.8106 11.5444 21.6979 11.6146C21.5856 11.6921 21.452 11.7342 21.3112 11.7555C21.1635 11.7835 20.9874 11.7555 20.8185 11.7342C20.8117 11.7342 20.8049 11.7342 20.7976 11.7274C20.8044 11.5653 20.8112 11.3968 20.8325 11.2279C20.9072 10.4694 21.0933 9.25991 21.2197 8.51229C21.2478 8.34338 21.2831 8.17448 21.3112 8.00557L21.5081 7.53463L22.0216 6.28934L22.1412 5.99365L22.2046 5.84602C22.2327 5.77538 22.2607 5.69116 22.2816 5.61372C22.3173 5.45885 22.3241 5.29674 22.3028 5.13508L22.2395 4.81176L22.1271 4.17825L21.8948 2.91214C21.8874 2.86804 21.8713 2.82587 21.8474 2.78809C21.8235 2.75031 21.7922 2.71769 21.7555 2.69213C21.7189 2.66657 21.6774 2.64859 21.6337 2.63925C21.59 2.62991 21.5448 2.62939 21.5009 2.63772C21.4166 2.65218 21.3408 2.69786 21.2887 2.76567C21.2366 2.83348 21.212 2.91843 21.2197 3.00361L21.3533 4.291L21.4235 4.93131L21.452 5.24059C21.4554 5.29312 21.4481 5.34579 21.4307 5.39546L20.5934 7.06278C20.3501 6.96794 20.1346 6.8131 19.9672 6.61266C19.8202 6.44154 19.7038 6.24639 19.623 6.03576C19.5317 5.81748 19.47 5.58797 19.4396 5.35334V5.31802C19.4317 5.24853 19.3987 5.18432 19.3468 5.13743C19.2949 5.09054 19.2277 5.06421 19.1578 5.06337C19.0878 5.06254 19.02 5.08726 18.967 5.1329C18.914 5.17854 18.8795 5.24195 18.8699 5.31123C18.8231 5.61403 18.8184 5.92185 18.8559 6.22595C18.898 6.52844 18.9827 6.83772 19.1303 7.13342C19.2639 7.43591 19.4677 7.71757 19.7213 7.94942C19.8481 8.07621 19.9884 8.18172 20.1361 8.27319C19.994 8.82151 19.8626 9.37256 19.7421 9.92602C19.6627 10.2975 19.5901 10.6704 19.5243 11.0445C19.4822 11.3262 19.4328 11.5866 19.4115 11.8958C18.6408 12.5179 17.9035 13.1803 17.2026 13.8801C16.8087 14.2741 16.4355 14.6961 16.0841 15.1462C15.7952 15.5266 15.514 15.9061 15.3098 16.4341L15.303 16.4409C15.289 16.4902 15.2677 16.5396 15.2468 16.6026L15.1554 16.694C15.1481 16.7013 15.1481 16.7081 15.1481 16.7081L14.3262 17.6078C12.8075 17.1633 11.1931 17.1633 9.67432 17.6078L8.85198 16.7081C8.85198 16.7081 8.85198 16.7013 8.84474 16.6945L8.75326 16.6026C8.73243 16.5392 8.71115 16.4902 8.69711 16.4409L8.69032 16.4341C8.48609 15.9061 8.20489 15.5262 7.91598 15.1462C7.56931 14.7018 7.19579 14.279 6.79749 13.8801C6.09663 13.1804 5.35931 12.5182 4.58858 11.8963C4.5673 11.5866 4.51794 11.3262 4.47583 11.045C4.41243 10.6718 4.33545 10.2992 4.25802 9.92648C4.13751 9.37286 4.00616 8.82166 3.86406 8.27319C4.01168 8.18172 4.15251 8.07576 4.27885 7.94942C4.52966 7.72078 4.7308 7.44304 4.86979 7.13342C5.01004 6.84772 5.10273 6.54105 5.14421 6.22549C5.18186 5.92142 5.17728 5.6136 5.13062 5.31078C5.12102 5.2415 5.08645 5.17811 5.03342 5.13251C4.98039 5.08691 4.91253 5.06224 4.8426 5.06313C4.77266 5.06402 4.70545 5.09041 4.6536 5.13734C4.60174 5.18427 4.5688 5.24852 4.56096 5.31802V5.35334C4.53052 5.58797 4.46885 5.81748 4.37757 6.03576C4.29667 6.24642 4.1801 6.44157 4.03296 6.61266C3.85681 6.82368 3.639 6.97131 3.4067 7.06278L2.56941 5.39546C2.552 5.34579 2.54476 5.29312 2.54813 5.24059L2.57666 4.93131L2.64685 4.291L2.78043 3.00361C2.78815 2.91843 2.7635 2.83348 2.71139 2.76567C2.65927 2.69786 2.58352 2.65218 2.49923 2.63772C2.45529 2.62939 2.41014 2.62991 2.36641 2.63925C2.32268 2.64859 2.28126 2.66657 2.24457 2.69213C2.20788 2.71769 2.17666 2.75031 2.15274 2.78809C2.12882 2.82587 2.11268 2.86804 2.10526 2.91214L1.87296 4.17825L1.76021 4.81176L1.69681 5.13508C1.67559 5.29463 1.68279 5.45668 1.71809 5.61372C1.73938 5.6907 1.76745 5.77538 1.79553 5.84602L1.85892 5.99365L1.97847 6.28889L2.49198 7.53417L2.68896 8.00557C2.71704 8.17448 2.75236 8.34338 2.78043 8.51229C2.90723 9.26082 3.09289 10.4699 3.1676 11.2279C3.18843 11.3968 3.19568 11.5653 3.20247 11.7274C3.19568 11.7342 3.18889 11.7342 3.18164 11.7342C3.01273 11.7555 2.83658 11.784 2.68896 11.7555C2.55108 11.7386 2.41883 11.6906 2.30224 11.6151C2.18949 11.5444 2.08398 11.3828 2.04187 11.3053L1.97847 11.1926C1.93304 11.107 1.86138 11.0383 1.77401 10.9965C1.68663 10.9547 1.58816 10.942 1.49304 10.9603C1.37572 10.985 1.27293 11.0551 1.20703 11.1553C1.14114 11.2554 1.11747 11.3776 1.14119 11.4951C1.21862 11.861 1.35945 12.1073 1.58451 12.3604C1.80438 12.5963 2.08021 12.773 2.38647 12.8739C2.68896 12.9867 2.98421 13.0007 3.27311 13.0143C3.41176 13.0123 3.55022 13.0031 3.6879 12.9867H3.69515C4.43067 13.5758 5.13288 14.2053 5.79855 14.8723C6.15465 15.2307 6.49056 15.6087 6.80474 16.0044C6.99492 16.2512 7.17062 16.5115 7.29696 16.7574C7.21051 16.8256 7.11875 16.8868 7.02255 16.9404C6.7907 17.0807 6.54436 17.1441 6.28443 17.1654C6.03085 17.1935 5.76368 17.1446 5.49651 17.0386C5.23162 16.9245 4.9886 16.7651 4.77832 16.5677L4.74345 16.5396C4.68179 16.4809 4.60136 16.4458 4.51636 16.4406C4.43135 16.4354 4.34724 16.4603 4.27885 16.5111C4.20324 16.5697 4.15356 16.6556 4.14044 16.7504C4.12733 16.8451 4.15181 16.9413 4.20866 17.0182C4.44697 17.3368 4.73979 17.6106 5.07357 17.827C5.42711 18.0496 5.82659 18.1889 6.24187 18.2346C6.66391 18.2699 7.11402 18.2278 7.50073 18.0729C7.67734 18.0167 7.839 17.9461 7.99341 17.8619L8.27507 18.1684C7.20733 18.7153 6.27319 19.4906 5.53907 20.4394C5.49272 20.4991 5.45859 20.5675 5.43864 20.6404C5.41868 20.7134 5.41329 20.7895 5.42277 20.8646C5.43226 20.9396 5.45642 21.012 5.4939 21.0777C5.53138 21.1434 5.58142 21.2011 5.64119 21.2475C5.70095 21.2938 5.76926 21.3279 5.84221 21.3479C5.91517 21.3678 5.99134 21.3732 6.06637 21.3638C6.14141 21.3543 6.21385 21.3301 6.27954 21.2926C6.34524 21.2552 6.40291 21.2051 6.44926 21.1453C9.26451 17.5164 14.7401 17.5213 17.5508 21.1453C17.5972 21.2051 17.6549 21.2552 17.7206 21.2926C17.7863 21.3301 17.8587 21.3543 17.9337 21.3638C18.0088 21.3732 18.0849 21.3678 18.1579 21.3479C18.2309 21.3279 18.2992 21.2938 18.3589 21.2475C18.4187 21.2011 18.4687 21.1434 18.5062 21.0777C18.5437 21.012 18.5679 20.9396 18.5773 20.8646C18.5868 20.7895 18.5814 20.7134 18.5615 20.6404C18.5415 20.5675 18.5074 20.4991 18.461 20.4394C17.7269 19.4906 16.7928 18.7153 15.725 18.1684L16.0067 17.8619C16.1611 17.9466 16.3232 18.0167 16.4989 18.0729C16.8861 18.2278 17.3362 18.2699 17.7582 18.235C18.1736 18.1892 18.573 18.0497 18.9265 17.827C19.2604 17.6104 19.5532 17.3365 19.7915 17.0178C19.8482 16.9409 19.8726 16.8448 19.8594 16.7502C19.8463 16.6555 19.7967 16.5697 19.7213 16.5111C19.6529 16.4603 19.5688 16.4354 19.4838 16.4406C19.3988 16.4458 19.3183 16.4809 19.2567 16.5396L19.2218 16.5677C19.0116 16.7651 18.7688 16.9244 18.5041 17.0386C18.2369 17.1446 17.9697 17.1935 17.7161 17.1654C17.4558 17.1446 17.2094 17.0812 16.9776 16.9404C16.8814 16.8868 16.7896 16.8256 16.7032 16.7574C16.8299 16.5111 17.0056 16.2512 17.1954 16.0048C17.5095 15.609 17.8455 15.2309 18.2016 14.8723C18.8672 14.2053 19.5694 13.5758 20.305 12.9867H20.3122C20.4499 13.0033 20.5883 13.0126 20.727 13.0148C21.0155 13.0007 21.3111 12.9867 21.6136 12.8744C21.9199 12.7733 22.1958 12.5965 22.4156 12.3604C22.6407 12.1069 22.7815 11.861 22.8589 11.4955C22.8828 11.3779 22.8592 11.2557 22.7933 11.1554C22.7274 11.0552 22.6245 10.985 22.5071 10.9603Z" fill="black"/>
</svg>
