<svg width="157" height="53" viewBox="0 0 157 53" fill="none" xmlns="http://www.w3.org/2000/svg">
<path d="M0.500229 24.9849C0.491865 25.2609 0.70884 25.4914 0.984855 25.4998L5.48279 25.6361C5.75881 25.6444 5.98934 25.4275 5.99771 25.1514C6.00607 24.8754 5.7891 24.6449 5.51308 24.6365L1.51492 24.5154L1.63607 20.5172C1.64444 20.2412 1.42746 20.0107 1.15145 20.0023C0.87543 19.9939 0.644895 20.2109 0.63653 20.4869L0.500229 24.9849ZM156.005 25.5C156.281 25.4971 156.503 25.271 156.5 24.9948L156.454 20.4951C156.451 20.219 156.225 19.9974 155.948 20.0003C155.672 20.0031 155.451 20.2293 155.454 20.5054L155.495 24.5052L151.495 24.5464C151.219 24.5493 150.997 24.7754 151 25.0515C151.003 25.3277 151.229 25.5492 151.505 25.5464L156.005 25.5ZM1.34268 25.3641C1.90045 24.8391 2.54354 24.2772 3.27106 23.6854L2.64006 22.9097C1.89622 23.5147 1.23472 24.0925 0.657318 24.6359L1.34268 25.3641ZM7.41802 20.6387C8.73709 19.7529 10.1997 18.8364 11.8027 17.906L11.3008 17.0411C9.67962 17.982 8.19846 18.91 6.8605 19.8086L7.41802 20.6387ZM16.3526 15.4323C17.8213 14.6837 19.3768 13.9358 21.0176 13.197L20.607 12.2851C18.9516 13.0305 17.3816 13.7854 15.8985 14.5414L16.3526 15.4323ZM25.7826 11.1791C27.3376 10.5606 28.9552 9.95479 30.6345 9.36708L30.3042 8.42321C28.6116 9.01556 26.9809 9.62628 25.413 10.2499L25.7826 11.1791ZM35.5609 7.75377C37.1714 7.26159 38.8307 6.78814 40.5382 6.33737L40.283 5.37049C38.563 5.82456 36.8913 6.30153 35.2686 6.79744L35.5609 7.75377ZM45.5676 5.10993C47.2216 4.73864 48.9156 4.38969 50.6492 4.06615L50.4658 3.08313C48.7202 3.4089 47.0143 3.76029 45.3486 4.13422L45.5676 5.10993ZM55.7526 3.20704C57.433 2.95445 59.147 2.72632 60.8942 2.52509L60.7797 1.53166C59.0211 1.73421 57.2956 1.96386 55.6039 2.21815L55.7526 3.20704ZM66.0462 2.01979C67.7445 1.88194 69.4715 1.76984 71.227 1.68551L71.179 0.686659C69.4125 0.77152 67.6745 0.884333 65.9653 1.02307L66.0462 2.01979ZM76.399 1.5206C77.2597 1.50694 78.1267 1.5 79 1.5V0.5C78.1214 0.5 77.2491 0.506981 76.3832 0.520724L76.399 1.5206ZM79 1.5C79.8643 1.5 80.7222 1.5068 81.5736 1.52018L81.5893 0.520302C80.7327 0.506838 79.8696 0.5 79 0.5V1.5ZM86.6885 1.68183C88.4264 1.76464 90.1351 1.87477 91.8146 2.01027L91.895 1.01351C90.2047 0.877133 88.4849 0.766294 86.7361 0.682963L86.6885 1.68183ZM96.9124 2.50774C98.6411 2.70603 100.336 2.93093 101.997 3.18004L102.145 2.1911C100.473 1.94029 98.7666 1.71387 97.0263 1.51425L96.9124 2.50774ZM107.047 4.0294C108.763 4.34952 110.438 4.69493 112.072 5.06261L112.291 4.08699C110.645 3.71664 108.958 3.36876 107.231 3.04637L107.047 4.0294ZM117.044 6.27992C118.735 6.72826 120.377 7.19939 121.969 7.68937L122.263 6.73359C120.658 6.23977 119.004 5.76504 117.3 5.31332L117.044 6.27992ZM126.837 9.29642C128.497 9.88282 130.095 10.4875 131.629 11.1052L132.003 10.1775C130.455 9.55452 128.844 8.94471 127.17 8.35351L126.837 9.29642ZM136.333 13.1236C137.951 13.863 139.483 14.6118 140.928 15.3615L141.389 14.4739C139.929 13.7164 138.382 12.9603 136.749 12.214L136.333 13.1236ZM145.41 17.8463C146.988 18.7817 148.424 19.7034 149.717 20.5943L150.284 19.771C148.972 18.8666 147.517 17.9327 145.92 16.9862L145.41 17.8463ZM153.775 23.6645C154.485 24.2615 155.11 24.8282 155.65 25.3572L156.35 24.6428C155.79 24.094 155.145 23.5104 154.418 22.8991L153.775 23.6645Z" fill="white"/>
<g clip-path="url(#clip0_626_4865)">
<path d="M67.4016 32.0894C67.4981 32.0337 67.5759 31.9506 67.6251 31.8507C67.6743 31.7507 67.6927 31.6384 67.678 31.5279C67.6633 31.4175 67.6162 31.3139 67.5425 31.2303C67.4689 31.1467 67.3721 31.0868 67.2644 31.0583C65.9298 30.7049 64.8145 29.8515 64.1241 28.6557C62.7033 26.1947 63.5486 23.0372 66.0087 21.6169C68.4687 20.1965 71.6259 21.0432 73.0468 23.5041C73.736 24.6979 73.9184 26.0885 73.5603 27.4196C73.522 27.5636 73.5423 27.7169 73.6168 27.8459C73.6913 27.9749 73.8139 28.0691 73.9578 28.1078C74.1017 28.1465 74.2551 28.1266 74.3842 28.0524C74.5134 27.9782 74.6079 27.8557 74.647 27.712C75.0832 26.0902 74.861 24.396 74.0213 22.9415C72.2902 19.9432 68.4434 18.9118 65.4461 20.6423C62.4487 22.3729 61.4185 26.22 63.1496 29.2183C63.9909 30.6756 65.35 31.7154 66.9763 32.1461C67.1199 32.1843 67.273 32.1639 67.4016 32.0894ZM84.6132 28.2883C83.7473 28.2876 82.9423 28.7488 82.5125 29.4922C82.4947 29.5227 82.4791 29.5542 82.4628 29.5855C81.9942 28.8861 81.3893 28.63 80.9489 28.5408C80.3541 28.4203 79.7182 28.5316 79.1586 28.8542L79.1566 28.8553C78.598 29.1778 78.1838 29.6715 77.9901 30.2457C77.9598 30.3358 77.9351 30.4276 77.916 30.5207C77.2013 30.2467 76.4003 30.3556 75.7562 30.7265L75.7534 30.7281C75.3352 30.9695 74.98 31.324 74.7487 31.7498L70.7573 24.8259C70.067 23.6303 68.5342 23.2182 67.3413 23.907L67.3372 23.9093C66.7618 24.2415 66.3492 24.78 66.1755 25.426C66.0013 26.0733 66.0889 26.7475 66.4217 27.324L73.0149 38.7648L70.8981 37.8749C69.701 37.3716 68.3773 37.4993 67.4444 38.2074C66.7457 38.7376 66.386 39.5082 66.4822 40.2688C66.5456 40.7709 66.8762 41.7074 68.3781 42.3385C71.5131 43.6568 73.0993 45.0182 74.4987 46.2194C75.6386 47.1976 76.6229 48.0426 78.1293 48.5562C79.4635 49.0125 80.4475 49.8259 81.1376 51.0428L81.7588 52.1386C81.7952 52.2029 81.8439 52.2594 81.9022 52.3048C81.9605 52.3502 82.0271 52.3838 82.0983 52.4034C82.1696 52.4231 82.244 52.4286 82.3173 52.4195C82.3906 52.4105 82.4614 52.387 82.5257 52.3506C82.59 52.3142 82.6465 52.2654 82.6919 52.2071C82.7374 52.1489 82.7709 52.0822 82.7906 52.011C82.8103 51.9398 82.8157 51.8654 82.8066 51.7921C82.7976 51.7187 82.7742 51.6479 82.7377 51.5836L82.1165 50.4878C81.2846 49.0208 80.0995 48.0407 78.493 47.4913C77.1913 47.0475 76.3265 46.3052 75.2316 45.3655C73.8417 44.1726 72.112 42.6879 68.8142 41.3012C68.0873 40.9957 67.6555 40.579 67.5985 40.1277C67.5534 39.7708 67.7501 39.388 68.1246 39.1037C68.6064 38.7381 69.4728 38.4963 70.4619 38.9123L74.1179 40.4492C74.2265 40.4949 74.3467 40.5054 74.4615 40.4791C74.5763 40.4529 74.68 40.3913 74.758 40.3029C74.8359 40.2146 74.8842 40.104 74.8959 39.9868C74.9076 39.8696 74.8823 39.7517 74.8234 39.6497L67.3964 26.7618C67.2138 26.4456 67.1662 26.0749 67.2621 25.7183C67.3579 25.3622 67.5843 25.0659 67.9007 24.8832L67.903 24.8819C68.5594 24.503 69.4027 24.7302 69.7826 25.3882L75.8785 35.9625C75.9154 36.0265 75.9646 36.0827 76.0231 36.1277C76.0817 36.1727 76.1486 36.2057 76.22 36.2249C76.2913 36.2441 76.3658 36.249 76.4391 36.2394C76.5123 36.2298 76.583 36.2059 76.647 36.169L76.6473 36.1688C76.7765 36.0942 76.8708 35.9714 76.9094 35.8273C76.9481 35.6833 76.9279 35.5298 76.8534 35.4005L75.8027 33.5728C75.333 32.7565 75.7219 32.0456 76.3159 31.7026L76.3176 31.7016C76.9124 31.3591 77.7231 31.3791 78.1938 32.1959L79.2462 34.0187C79.3208 34.1479 79.4437 34.2422 79.5878 34.2808C79.732 34.3194 79.8855 34.2992 80.0148 34.2246C80.144 34.15 80.2383 34.0271 80.2769 33.883C80.3155 33.7388 80.2953 33.5853 80.2207 33.456L79.2065 31.6993C78.9892 31.3223 78.9387 30.9542 79.0564 30.6053C79.161 30.2952 79.4025 30.0127 79.7193 29.8297L79.7203 29.8291C80.0378 29.6462 80.4042 29.5786 80.7255 29.6437C81.0868 29.7168 81.3802 29.9452 81.5975 30.3223L82.6083 32.0769L82.61 32.0759C82.6469 32.1399 82.6961 32.1962 82.7547 32.2412C82.8133 32.2862 82.8801 32.3193 82.9515 32.3385C83.0228 32.3576 83.0973 32.3626 83.1705 32.353C83.2438 32.3434 83.3145 32.3195 83.3785 32.2826L83.3788 32.2824C83.508 32.2078 83.6023 32.085 83.6409 31.9409C83.6796 31.7969 83.6595 31.6434 83.585 31.5141C83.2817 30.9881 83.2468 30.47 83.4865 30.0555C83.7123 29.6651 84.1542 29.4131 84.6124 29.4134C85.1014 29.4138 85.5349 29.6993 85.8335 30.2171L88.7527 35.2853C89.7523 37.0132 90.0903 39.047 89.7041 41.0116C89.3791 42.656 89.6421 44.2179 90.4858 45.6535L91.1253 46.7411C91.2005 46.869 91.3233 46.9621 91.4668 46.9999C91.6103 47.0378 91.763 47.0174 91.8915 46.9432L91.8955 46.941C92.0241 46.8653 92.1174 46.7417 92.1549 46.5973C92.1924 46.4528 92.171 46.2994 92.0954 46.1708L91.456 45.0832C90.7462 43.8755 90.5343 42.6151 90.8081 41.2292C91.2469 38.9966 90.8629 36.6855 89.7273 34.7227L86.8085 29.6553C86.3081 28.7872 85.508 28.2889 84.6132 28.2883Z" fill="white"/>
</g>
<defs>
<clipPath id="clip0_626_4865">
<rect width="36" height="36" fill="white" transform="translate(60 17)"/>
</clipPath>
</defs>
</svg>
