<svg width="288" height="360" viewBox="0 0 288 360" fill="none" xmlns="http://www.w3.org/2000/svg">
<g filter="url(#filter0_d_626_4845)">
<g filter="url(#filter1_d_626_4845)">
<path d="M182.17 120L105.17 120C102.409 120 100.17 122.239 100.17 125L100.17 275C100.17 277.761 102.409 280 105.17 280L182.17 280C184.932 280 187.17 277.761 187.17 275L187.17 125C187.17 122.239 184.932 120 182.17 120Z" fill="#F78B73"/>
</g>
<path d="M146.283 195.744L144.14 191.625L141.848 195.813L137.75 198.148L141.766 200.355L143.912 204.472L146.204 200.284L150.299 197.95L146.283 195.744ZM145.813 199.883L143.931 203.324L142.172 199.943L138.872 198.131L142.236 196.212L144.118 192.774L145.88 196.155L149.177 197.967L145.813 199.883Z" fill="black"/>
<path d="M143.906 178.87L143.775 189.339L144.2 189.331L144.332 178.862L143.906 178.87Z" fill="black"/>
<path d="M149.953 176.487L148.057 188.972L148.546 189.048L150.443 176.563L149.953 176.487Z" fill="black"/>
<path d="M137.433 176.54L139.382 189.016L139.944 188.917L137.995 176.441L137.433 176.54Z" fill="black"/>
<path d="M143.865 171.952L143.812 175.406L144.301 175.398L144.354 171.943L143.865 171.952Z" fill="black"/>
<path d="M143.887 163.661L143.83 167.481L144.315 167.473L144.372 163.653L143.887 163.661Z" fill="black"/>
<path d="M156.157 179.139L150.792 190.345L151.253 190.583L156.618 179.377L156.157 179.139Z" fill="black"/>
<path d="M131.745 179.077L131.253 179.34L136.712 190.543L137.203 190.281L131.745 179.077Z" fill="black"/>
<path d="M168.913 171.819L153.456 192.574L153.864 192.904L169.321 172.149L168.913 171.819Z" fill="black"/>
<path d="M118.832 171.729L118.398 172.085L134.006 192.87L134.44 192.514L118.832 171.729Z" fill="black"/>
<path d="M165.65 188.425L154.806 195.345L155.075 195.806L165.919 188.885L165.65 188.425Z" fill="black"/>
<path d="M121.668 188.35L121.395 188.854L133.151 195.779L133.423 195.275L121.668 188.35Z" fill="black"/>
<path d="M155.94 198.786L156.001 199.296L170.06 197.363L169.999 196.853L155.94 198.786Z" fill="black"/>
<path d="M117.89 196.777L117.81 197.388L131.41 199.266L131.49 198.655L117.89 196.777Z" fill="black"/>
<path d="M143.839 216.188L143.707 226.657L144.132 226.649L144.264 216.18L143.839 216.188Z" fill="black"/>
<path d="M148.001 216.618L149.771 229.092L150.337 229L148.568 216.527L148.001 216.618Z" fill="black"/>
<path d="M139.388 216.501L137.319 228.987L137.809 229.071L139.878 216.585L139.388 216.501Z" fill="black"/>
<path d="M143.745 230.126L143.692 233.58L144.181 233.572L144.234 230.117L143.745 230.126Z" fill="black"/>
<path d="M143.736 238.051L143.678 241.87L144.163 241.862L144.221 238.043L143.736 238.051Z" fill="black"/>
<path d="M151.23 214.982L150.735 215.238L156.019 226.443L156.514 226.187L151.23 214.982Z" fill="black"/>
<path d="M136.695 214.953L131.159 226.158L131.617 226.402L137.153 215.197L136.695 214.953Z" fill="black"/>
<path d="M153.863 212.65L153.426 213.002L168.773 233.786L169.209 233.434L153.863 212.65Z" fill="black"/>
<path d="M133.981 212.625L118.259 233.377L118.665 233.71L134.387 212.959L133.981 212.625Z" fill="black"/>
<path d="M155.066 209.777L154.776 210.269L165.573 217.194L165.862 216.702L155.066 209.777Z" fill="black"/>
<path d="M133.14 209.736L121.337 216.654L121.59 217.125L133.393 210.206L133.14 209.736Z" fill="black"/>
<path d="M156.01 206.267L155.932 206.88L169.969 208.757L170.047 208.143L156.01 206.267Z" fill="black"/>
<path d="M117.783 208.157L117.846 208.668L131.469 206.736L131.406 206.225L117.783 208.157Z" fill="black"/>
<path d="M157.196 202.699L157.188 203.15L167.738 203.026L167.747 202.575L157.196 202.699Z" fill="black"/>
<path d="M120.636 202.631L120.627 203.089L130.304 202.973L130.313 202.515L120.636 202.631Z" fill="black"/>
<path d="M113.569 202.554L113.56 203.066L117.306 203.014L117.315 202.502L113.569 202.554Z" fill="black"/>
<path d="M106.24 202.535L106.231 203.053L109.365 203.009L109.374 202.49L106.24 202.535Z" fill="black"/>
<path d="M170.999 202.647L170.99 203.164L174.298 203.117L174.307 202.6L170.999 202.647Z" fill="black"/>
<path d="M178.483 202.659L178.474 203.174L181.955 203.125L181.964 202.61L178.483 202.659Z" fill="black"/>
<path d="M153.751 199.96C152.67 204.562 148.548 207.951 143.949 208.026C142.441 208.05 140.996 207.714 139.705 207.091C137.056 205.817 135.043 203.336 134.427 200.265L134.186 199.071L133.902 200.273C133.721 201.039 133.624 201.827 133.608 202.618C133.559 205.471 134.598 208.138 136.533 210.124C137.796 211.419 139.34 212.324 141.034 212.782C141.941 213.031 142.889 213.15 143.859 213.136C144.764 213.123 145.647 212.988 146.488 212.753C151 211.488 154.398 207.253 154.486 202.288C154.5 201.498 154.431 200.712 154.276 199.952L154.034 198.758L153.751 199.96ZM153.948 202.298C153.865 207.006 150.642 211.023 146.363 212.222C145.563 212.446 144.729 212.573 143.87 212.584C142.84 212.601 141.838 212.458 140.891 212.166C139.403 211.706 138.041 210.88 136.921 209.727C135.68 208.454 134.826 206.886 134.419 205.17C134.224 204.346 134.131 203.486 134.147 202.611C134.152 202.268 134.174 201.928 134.213 201.586C135.143 204.416 137.237 206.649 139.866 207.77C141.123 208.312 142.504 208.598 143.94 208.574C148.378 208.504 152.394 205.504 153.918 201.277C153.945 201.614 153.956 201.956 153.948 202.298Z" fill="black"/>
<path d="M166.697 150.586L171.238 153.129L166.64 155.745L164.09 160.484L161.641 155.786L157.102 153.243L161.697 150.627L164.247 145.888L166.697 150.586Z" fill="black"/>
<path d="M140.523 254.02L143.369 255.614L140.487 257.256L138.888 260.226L137.353 257.28L134.507 255.686L137.39 254.044L138.988 251.075L140.523 254.02Z" fill="black"/>
<path d="M175.291 241.322L173.139 237.192L170.859 241.38L166.776 243.709L170.791 245.93L172.942 250.061L175.221 245.873L179.307 243.543L175.291 241.322ZM174.832 245.469L172.96 248.908L171.192 245.517L167.897 243.695L171.251 241.783L173.123 238.344L174.888 241.736L178.186 243.557L174.832 245.469Z" fill="black"/>
<path d="M115.815 241.429L114.033 238.011L112.147 241.476L109.903 242.755L108.766 243.405L110.375 244.295L112.09 245.241L113.87 248.659L115.755 245.192L119.137 243.266L115.815 241.429ZM115.366 244.791L113.888 247.506L112.491 244.828L110.139 243.525L109.889 243.387L110.065 243.287L112.539 241.878L114.017 239.161L115.411 241.84L118.013 243.281L115.366 244.791Z" fill="black"/>
<path d="M177.893 182.486L176.489 179.791L175.001 182.525L172.334 184.044L174.953 185.495L176.36 188.19L177.847 185.456L180.514 183.936L177.893 182.486ZM177.456 185.056L176.376 187.04L175.357 185.084L173.455 184.03L175.39 182.928L176.471 180.944L177.49 182.9L179.391 183.951L177.456 185.056Z" fill="black"/>
<path d="M123.48 155.846L121.33 151.718L119.623 154.854L119.051 155.906L118.123 156.435L114.964 158.233L118.98 160.454L119.134 160.75L121.13 164.585L121.671 163.59L123.409 160.397L127.495 158.067L123.48 155.846ZM123.02 159.993L121.488 162.808L121.149 163.434L119.381 160.044L118.906 159.781L116.085 158.219L118.251 156.985L119.439 156.307L119.806 155.633L121.312 152.868L123.079 156.259L126.375 158.083L123.02 159.993Z" fill="black"/>
<rect x="105.31" y="125.349" width="76.72" height="148.091" rx="4.5" stroke="black"/>
</g>
<defs>
<filter id="filter0_d_626_4845" x="0.17038" y="0" width="287" height="360" filterUnits="userSpaceOnUse" color-interpolation-filters="sRGB">
<feFlood flood-opacity="0" result="BackgroundImageFix"/>
<feColorMatrix in="SourceAlpha" type="matrix" values="0 0 0 0 0 0 0 0 0 0 0 0 0 0 0 0 0 0 127 0" result="hardAlpha"/>
<feOffset dy="-20"/>
<feGaussianBlur stdDeviation="50"/>
<feComposite in2="hardAlpha" operator="out"/>
<feColorMatrix type="matrix" values="0 0 0 0 1 0 0 0 0 0.568627 0 0 0 0 0.317647 0 0 0 0.25 0"/>
<feBlend mode="normal" in2="BackgroundImageFix" result="effect1_dropShadow_626_4845"/>
<feBlend mode="normal" in="SourceGraphic" in2="effect1_dropShadow_626_4845" result="shape"/>
</filter>
<filter id="filter1_d_626_4845" x="74.1704" y="102" width="127" height="200" filterUnits="userSpaceOnUse" color-interpolation-filters="sRGB">
<feFlood flood-opacity="0" result="BackgroundImageFix"/>
<feColorMatrix in="SourceAlpha" type="matrix" values="0 0 0 0 0 0 0 0 0 0 0 0 0 0 0 0 0 0 127 0" result="hardAlpha"/>
<feOffset dx="-6" dy="2"/>
<feGaussianBlur stdDeviation="10"/>
<feComposite in2="hardAlpha" operator="out"/>
<feColorMatrix type="matrix" values="0 0 0 0 0.120833 0 0 0 0 0.0960222 0 0 0 0 0.0322222 0 0 0 0.2 0"/>
<feBlend mode="normal" in2="BackgroundImageFix" result="effect1_dropShadow_626_4845"/>
<feBlend mode="normal" in="SourceGraphic" in2="effect1_dropShadow_626_4845" result="shape"/>
</filter>
</defs>
</svg>
